<svg width="533" height="398" viewBox="0 0 533 398" fill="none" xmlns="http://www.w3.org/2000/svg">
<path d="M416.741 375.258H124.688L124.819 344.639C125.153 267.16 187.691 203.319 266.032 202.001C266.879 201.987 267.726 201.98 268.576 201.98H268.576C286.204 201.966 303.692 205.073 320.214 211.153C375.646 231.567 412.853 283.432 415.328 341.873L416.741 375.258Z" fill="url(#paint0_linear_348_507)"/>
<path d="M533 375.26H0V376.451H533V375.26Z" fill="#2F2E41"/>
<path d="M265.769 238.306L278.637 247.562L291.506 356.306H321.923L311.394 232.522L269.278 216.326L265.769 238.306Z" fill="#2F2E41"/>
<path d="M211.955 203.601C211.955 203.601 208.445 242.934 222.484 244.091C236.522 245.248 290.338 232.522 290.338 232.522L316.075 322.757L354.682 303.09C354.682 303.09 331.284 201.287 317.245 195.503C303.206 189.719 256.411 178.15 256.411 178.15L222.484 183.935L211.955 203.601Z" fill="#2F2E41"/>
<path d="M296.188 353.993C296.188 353.993 289.168 380.601 293.848 382.914C296.662 384.305 299.396 385.85 302.037 387.542V382.914C302.037 382.914 307.887 388.699 307.887 393.326C307.887 397.954 339.474 399.11 339.474 393.326C339.474 387.542 338.304 380.601 332.454 377.13C326.605 373.66 319.586 353.993 319.586 353.993H296.188Z" fill="#2F2E41"/>
<path d="M330.114 306.562L332.454 328.542L340.643 342.424L360.531 320.444L345.323 296.15L330.114 306.562Z" fill="#2F2E41"/>
<path d="M348.833 328.541C348.833 328.541 353.14 313.976 357.421 315.474C361.701 316.973 378.08 332.012 378.08 332.012L389.779 338.953C389.779 338.953 413.177 341.267 406.157 348.208C399.138 355.149 373.4 364.404 361.701 359.776C350.002 355.149 347.663 353.992 347.663 353.992L344.153 356.306L330.114 352.835L332.454 328.541C332.454 328.541 335.964 338.953 348.833 328.541Z" fill="#2F2E41"/>
<path d="M251.73 58.9955C266.59 58.9955 278.637 47.0828 278.637 32.3879C278.637 17.6929 266.59 5.78027 251.73 5.78027C236.869 5.78027 224.822 17.6929 224.822 32.3879C224.822 47.0828 236.869 58.9955 251.73 58.9955Z" fill="#9F616A"/>
<path d="M234.768 48.0048C234.768 48.0048 237.108 72.2987 230.088 72.2987C223.069 72.2987 231.258 102.377 249.976 102.377C268.695 102.377 275.714 66.5144 275.714 66.5144C275.714 66.5144 262.845 61.887 265.185 46.8479C267.525 31.8089 234.768 48.0048 234.768 48.0048Z" fill="#9F616A"/>
<path d="M232.902 70.4456L223.067 74.6125L196.376 85.779C195.3 86.2292 194.4 87.0113 193.81 88.0087C193.22 89.0061 192.972 90.1653 193.102 91.3135L203.179 179.886C203.179 179.886 192.65 201.866 209.029 203.023L211.368 211.121L230.087 189.141L300.28 186.827L301.45 74.6125L269.333 62.0625C269.333 62.0625 264.965 85.9452 232.902 70.4456Z" fill="#3F3D56"/>
<path d="M200.254 89.0729L195.931 87.8514C195.446 87.7145 194.937 87.6808 194.439 87.7525C193.94 87.8243 193.462 87.9999 193.037 88.2677C192.611 88.5356 192.249 88.8896 191.972 89.3063C191.695 89.7231 191.511 90.1932 191.432 90.6855L179.959 161.847C179.064 167.117 179.921 172.532 182.401 177.28C185.946 183.917 193.308 189.936 208.443 182.778L218.972 107.582L200.254 89.0729Z" fill="#3F3D56"/>
<path d="M287.996 72.877L302.035 75.1906L340.641 128.406L344.151 137.661L366.379 130.72C366.379 130.72 365.209 141.131 376.908 139.974C376.908 139.974 362.869 178.15 333.622 166.582C304.375 155.013 295.015 120.308 295.015 120.308L287.996 72.877Z" fill="#3F3D56"/>
<path d="M304.377 96.0153L251.731 75.1914L249.392 82.1327L273.959 102.956L304.377 96.0153Z" fill="#CCCCCC"/>
<path d="M235.532 34.084C236.525 33.8216 236.671 32.5169 236.705 31.5003C236.883 26.0563 240.198 20.4702 245.468 18.8853C247.49 18.337 249.608 18.2218 251.678 18.5474C254.634 18.9367 257.488 19.8783 260.089 21.322C261.461 22.085 262.808 23.004 264.364 23.2371C265.393 23.3911 269.845 24.671 270.868 24.8512C273.119 25.2472 275.211 27.2387 277.371 26.4976C279.438 25.7886 279.895 23.1428 279.945 20.9804C280.059 16.054 276.277 9.23569 272.946 5.57083C270.418 2.78971 266.612 1.50591 262.891 0.838354C258.544 0.147746 254.14 -0.117225 249.741 0.0472908C243.786 0.152306 237.666 0.60679 232.297 3.15457C226.927 5.70234 222.417 10.773 222.16 16.6567C222.106 17.8823 222.234 19.1131 222.13 20.3355C221.876 23.3176 220.274 26.0112 219.523 28.9102C218.986 31.0374 218.906 33.2522 219.287 35.4119C219.669 37.5716 220.504 39.6282 221.739 41.4491C223.732 44.3491 231.701 46.9816 231.585 50.4858C233.026 49.0103 229.629 47.525 231.069 46.0494C231.715 45.5621 232.172 44.8707 232.364 44.0906C232.556 43.3104 232.471 42.4887 232.125 41.7626L230.595 35.8636C230.315 34.7834 230.04 33.6142 230.463 32.5806C232.102 28.5743 233.875 34.5215 235.532 34.084Z" fill="#2F2E41"/>
<path d="M249.392 82.1331L227.164 167.74L313.736 197.818L364.041 156.171L395.628 62.4668L344.153 99.486L249.392 82.1331Z" fill="#F2F2F2"/>
<path d="M253.634 91.4051L253.336 92.5234L337.568 114.504L337.867 113.385L253.634 91.4051Z" fill="#E4E4E4"/>
<path d="M251.294 97.1912L250.995 98.3096L335.227 120.29L335.526 119.171L251.294 97.1912Z" fill="#E4E4E4"/>
<path d="M250.125 102.974L249.826 104.093L334.059 126.073L334.357 124.955L250.125 102.974Z" fill="#E4E4E4"/>
<path d="M248.955 108.761L248.656 109.879L332.889 131.859L333.187 130.741L248.955 108.761Z" fill="#E4E4E4"/>
<path d="M247.786 114.544L247.487 115.662L331.72 137.642L332.018 136.524L247.786 114.544Z" fill="#E4E4E4"/>
<path d="M246.614 120.326L246.315 121.444L330.548 143.425L330.846 142.306L246.614 120.326Z" fill="#E4E4E4"/>
<path d="M245.445 126.112L245.146 127.23L329.379 149.211L329.677 148.092L245.445 126.112Z" fill="#E4E4E4"/>
<path d="M244.275 131.895L243.977 133.014L328.209 154.994L328.507 153.876L244.275 131.895Z" fill="#E4E4E4"/>
<path d="M243.106 137.681L242.808 138.8L327.04 160.78L327.338 159.662L243.106 137.681Z" fill="#E4E4E4"/>
<path d="M213.721 145.105C213.721 145.105 240.033 129.564 251.732 139.976C263.43 150.387 217.805 165.427 217.805 165.427L213.721 145.105Z" fill="#9F616A"/>
<path d="M185.047 152.7L218.974 139.975C218.974 139.975 213.124 161.955 224.823 163.112L208.445 182.778C208.445 182.778 175.688 182.778 185.047 152.7Z" fill="#3F3D56"/>
<path d="M274.325 152.227L319.344 167.23L308.69 190.195L263.671 175.192L274.325 152.227Z" fill="#E4E4E4"/>
<path d="M354.096 103.535L388.023 78.084L378.664 109.319L343.567 134.77L354.096 103.535Z" fill="#CCCCCC"/>
<path d="M371.292 120.424L337.364 145.874L338.071 146.796L371.999 121.346L371.292 120.424Z" fill="#E4E4E4"/>
<path d="M368.951 133.152L335.023 158.602L335.731 159.523L369.658 134.074L368.951 133.152Z" fill="#E4E4E4"/>
<path d="M373.398 141.133C373.398 141.133 402.646 123.78 383.927 116.839C365.209 109.898 365.209 136.505 365.209 136.505C365.209 136.505 364.039 142.289 373.398 141.133Z" fill="#9F616A"/>
<path opacity="0.1" d="M202.01 102.377L200.84 147.494L218.973 142.377L204.349 142.866L202.01 102.377Z" fill="black"/>
<path d="M74.3502 354.856C78.0073 368.224 90.5337 376.503 90.5337 376.503C90.5337 376.503 97.1307 363.108 93.4736 349.74C89.8166 336.372 77.2902 328.093 77.2902 328.093C77.2902 328.093 70.6931 341.488 74.3502 354.856Z" fill="#8985A8"/>
<path d="M79.726 351.981C89.7611 361.641 90.9868 376.49 90.9868 376.49C90.9868 376.49 75.9424 375.678 65.9073 366.018C55.8722 356.358 54.6465 341.509 54.6465 341.509C54.6465 341.509 69.6909 342.321 79.726 351.981Z" fill="#3F3D56"/>
<path d="M420.956 225.797H402.891V243.661H420.956V225.797Z" fill="#F2F2F2"/>
<path d="M348.696 23.3428H330.631V41.2066H348.696V23.3428Z" fill="#F2F2F2"/>
<path d="M121.679 204.363C126.668 204.363 130.712 200.364 130.712 195.431C130.712 190.498 126.668 186.499 121.679 186.499C116.691 186.499 112.646 190.498 112.646 195.431C112.646 200.364 116.691 204.363 121.679 204.363Z" fill="#F2F2F2"/>
<defs>
<linearGradient id="paint0_linear_348_507" x1="517.403" y1="425.638" x2="13.4271" y2="315.31" gradientUnits="userSpaceOnUse">
<stop stop-color="#19799F"/>
<stop offset="1" stop-color="#3698D2"/>
</linearGradient>
</defs>
</svg>
