<svg width="477" height="467" viewBox="0 0 477 467" fill="none" xmlns="http://www.w3.org/2000/svg">
<path d="M269.071 464.744C250.457 455.744 243.04 434.348 240.416 414.418C239.973 411.109 239.045 407.668 240.103 404.491C241.161 401.315 244.422 398.723 247.553 399.617C250.155 400.355 251.677 403.025 253.415 405.131C255.727 407.973 258.783 410.085 262.226 411.219C264.472 411.958 267.138 412.19 268.985 410.69C271.511 408.627 271.144 404.635 270.626 401.348C269.568 395.253 268.531 389.157 267.516 383.062C266.785 379.809 266.57 376.458 266.879 373.135C267.354 369.827 269.093 366.518 272.008 365.15C274.923 363.782 279.015 364.896 280.192 368.007C280.539 369.344 280.799 370.704 280.969 372.076C281.282 373.433 282.157 374.834 283.485 374.999C284.813 375.165 285.968 374.007 286.778 372.871C289.542 368.977 291.097 364.312 292.5 359.691C293.904 355.069 295.221 350.36 297.64 346.213C300.058 342.066 303.751 338.492 308.318 337.389C312.885 336.287 318.284 338.382 320.195 342.805C322.106 347.228 320.259 352.4 318.035 356.658C314.658 362.962 310.406 368.734 305.414 373.797C304.418 374.607 303.7 375.72 303.362 376.973C303.028 379.29 305.424 381.12 307.681 381.473C310.208 381.87 312.777 381.165 315.336 381.032C317.895 380.9 320.799 381.562 322.16 383.823C324.028 386.955 321.857 390.959 319.536 393.749C314.874 399.308 309.312 404.009 303.092 407.646C300.868 408.936 298.504 410.149 296.873 412.179C295.243 414.208 294.584 417.363 296.117 419.48C297.651 421.598 300.749 421.829 303.146 420.925C305.543 420.021 307.541 418.267 309.754 416.955C313.9 414.484 319.666 413.8 323.153 417.219C324.241 418.415 325.042 419.852 325.493 421.417C325.945 422.983 326.035 424.634 325.755 426.241C325.181 429.442 323.98 432.492 322.225 435.208C316.633 445.026 308.593 453.155 298.925 458.766C289.261 464.171 279.911 466.807 269.082 464.755" fill="#F5F5F5"/>
<path d="M272.018 451.443C273.449 440.092 275.519 428.835 278.215 417.726L280.288 408.98C280.968 406.102 281.648 403.256 282.447 400.521C284.062 395.271 285.958 390.116 288.127 385.08C290.167 380.249 292.273 375.727 294.27 371.525C296.268 367.323 298.222 363.44 300.144 359.988C303.144 354.513 306.566 349.29 310.379 344.371C311.729 342.628 312.819 341.316 313.564 340.433C313.921 340.014 314.212 339.683 314.417 339.43C314.622 339.176 314.72 339.099 314.73 339.11C314.652 339.237 314.566 339.359 314.471 339.474L313.651 340.511C312.938 341.415 311.88 342.716 310.563 344.514C306.833 349.482 303.473 354.728 300.511 360.209C298.621 363.672 296.699 367.554 294.713 371.756C292.726 375.959 290.653 380.481 288.634 385.311C286.484 390.348 284.61 395.503 283.02 400.752C282.188 403.477 281.519 406.267 280.86 409.179L278.787 417.936C276.097 429.021 274.017 440.252 272.557 451.575" fill="#E0E0E0"/>
<path d="M282.631 400.477C282.397 400.048 282.213 399.592 282.081 399.12C281.757 398.249 281.336 396.914 280.839 395.359C279.846 392.161 278.615 387.694 277.276 382.775C275.937 377.856 274.652 373.411 273.605 370.245C273.087 368.657 272.655 367.367 272.353 366.495C272.171 366.043 272.03 365.574 271.932 365.095C272.192 365.506 272.406 365.946 272.569 366.407C272.947 367.256 273.432 368.525 274.005 370.091C275.16 373.245 276.51 377.668 277.859 382.609C279.209 387.55 280.342 391.874 281.249 395.227C281.671 396.749 282.016 398.028 282.329 399.054C282.47 399.518 282.572 399.994 282.631 400.477Z" fill="#E0E0E0"/>
<path d="M322.742 385.411C322.22 385.633 321.677 385.799 321.122 385.907C320.042 386.183 318.563 386.58 316.706 387.131C312.981 388.234 307.896 389.866 302.357 391.962C296.818 394.058 291.884 396.186 288.321 397.819C286.55 398.624 285.136 399.319 284.153 399.793C283.66 400.067 283.143 400.296 282.609 400.477C283.056 400.125 283.537 399.822 284.045 399.572C284.995 399.032 286.388 398.282 288.137 397.366C291.625 395.624 296.548 393.429 302.098 391.322C306.834 389.512 311.66 387.955 316.555 386.657C318.434 386.15 319.967 385.819 321.036 385.609C321.597 385.489 322.168 385.422 322.742 385.411Z" fill="#E0E0E0"/>
<path d="M272.396 450.594C272.258 450.449 272.135 450.29 272.029 450.12L271.068 448.719C270.237 447.484 269.082 445.686 267.689 443.436C264.882 438.936 261.211 432.594 257.248 425.535C253.286 418.477 249.69 412.113 246.959 407.569L243.72 402.175L242.856 400.709C242.742 400.546 242.651 400.368 242.586 400.179C242.586 400.179 242.726 400.323 242.953 400.642C243.18 400.962 243.536 401.481 243.914 402.054C244.745 403.278 245.901 405.076 247.304 407.337C250.101 411.837 253.782 418.168 257.745 425.227C261.707 432.285 265.303 438.649 268.024 443.204L271.263 448.587C271.608 449.171 271.9 449.69 272.126 450.053C272.242 450.219 272.333 450.401 272.396 450.594Z" fill="#E0E0E0"/>
<path d="M324.417 422.965C324.265 423.101 324.094 423.213 323.909 423.296L322.408 424.112L316.837 427.079C312.13 429.594 305.673 433.134 298.547 437.006C291.421 440.877 284.932 444.417 280.192 446.822C277.817 448.024 275.873 449.027 274.534 449.612L272.915 450.34C272.737 450.436 272.549 450.51 272.354 450.561C272.508 450.428 272.678 450.317 272.861 450.23L274.373 449.413L279.944 446.436C284.64 443.932 291.097 440.392 298.223 436.509C305.349 432.627 311.849 429.109 316.578 426.704C318.953 425.502 320.897 424.498 322.236 423.914L323.79 423.186C323.987 423.08 324.198 423.006 324.417 422.965Z" fill="#E0E0E0"/>
<path d="M134.064 228.001C134.064 228.001 121.238 229.821 128.439 258.519C135.641 287.217 141.752 302.018 141.752 302.018C141.752 302.018 142.713 308.515 137.584 308.316C132.456 308.117 121.993 303.904 118.441 309.518C114.77 315.386 117.988 322.444 125.999 329.845C134.01 337.246 151.091 354.109 152.624 355.643C154.158 357.176 155.28 360.33 151.761 360.76C148.241 361.19 123.278 358.201 122.609 370.389C121.939 382.576 147.669 399.429 150.443 401.326C153.218 403.223 153.682 404.701 153.035 406.355C152.387 408.009 144.116 406.19 136.98 405.627C129.843 405.065 121.464 405.715 121.648 412.774C121.831 419.833 135.349 437.7 174.758 450.979L193.426 455.909L207.214 442.035C234.962 410.502 237.996 388.146 234.725 381.925C231.453 375.705 223.928 379.4 217.946 383.502C211.965 387.605 205.702 393.429 204.363 392.326C203.025 391.223 202.679 389.701 204.169 386.646C205.659 383.591 219.792 355.907 213.271 345.672C206.75 335.437 186.538 350.679 183.299 352.08C180.059 353.481 179.476 350.15 180.059 348.076C180.642 346.003 187.229 322.709 190.619 312.176C194.009 301.643 193.361 293.901 187.315 290.68C181.485 287.581 174.477 296.581 170.115 299.36C165.753 302.14 163.443 296.051 163.443 296.051C163.443 296.051 161.543 280.114 153.834 251.548C146.125 222.983 133.827 228.1 133.827 228.1" fill="#EBEBEB"/>
<path d="M193.416 460.652C187.834 439.697 178.516 402.197 170.364 370.003C162.213 337.809 154.806 308.78 149.321 287.758C146.579 277.258 144.355 268.766 142.843 262.865C142.087 259.942 141.493 257.659 141.083 256.093L140.63 254.328C140.532 253.931 140.5 253.722 140.5 253.722C140.5 253.722 140.576 253.909 140.694 254.306C140.813 254.703 140.975 255.31 141.191 256.06C141.634 257.626 142.271 259.887 143.07 262.799C144.689 268.655 146.978 277.137 149.764 287.637C155.346 308.592 162.828 337.72 170.98 369.849C179.132 401.977 188.374 439.509 193.859 460.531" fill="#E0E0E0"/>
<path d="M132.846 316.07C133.277 316.251 133.689 316.477 134.077 316.743C134.843 317.206 135.944 317.912 137.316 318.794C140.004 320.57 143.664 323.118 147.648 325.996L157.819 333.408L160.918 335.614C161.309 335.862 161.671 336.154 161.998 336.485C161.562 336.305 161.146 336.08 160.756 335.812C159.989 335.349 158.888 334.643 157.517 333.75C154.85 331.952 151.222 329.338 147.238 326.47L137.013 319.136L133.904 316.93C133.522 316.683 133.167 316.394 132.846 316.07Z" fill="#E0E0E0"/>
<path d="M163.564 335.569C163.423 335.481 168.228 327.551 174.285 317.856C180.342 308.162 185.384 300.375 185.525 300.463C185.665 300.551 180.86 308.492 174.792 318.187C168.724 327.882 163.704 335.635 163.564 335.569Z" fill="#E0E0E0"/>
<path d="M173.906 385.51C174.205 385.13 174.55 384.789 174.932 384.496L177.836 381.893C180.287 379.687 183.667 376.643 187.273 373.136C190.879 369.628 194.053 366.353 196.321 363.959C197.4 362.856 198.286 361.875 199.009 361.125C199.336 360.755 199.698 360.419 200.089 360.121C199.85 360.543 199.56 360.932 199.225 361.279C198.642 361.996 197.768 363.011 196.666 364.246C194.507 366.728 191.354 370.069 187.726 373.577C184.099 377.084 180.687 380.106 178.16 382.224C176.886 383.327 175.85 384.121 175.116 384.683C174.744 385.004 174.338 385.281 173.906 385.51Z" fill="#E0E0E0"/>
<path d="M142.324 374.117C142.76 374.17 143.188 374.277 143.598 374.437L147.021 375.539C149.893 376.477 153.855 377.811 158.217 379.311C162.579 380.811 166.52 382.223 169.36 383.271L172.718 384.528C173.136 384.662 173.538 384.843 173.916 385.069C173.48 385.024 173.052 384.92 172.642 384.76L169.219 383.657C166.347 382.72 162.385 381.385 158.023 379.874C153.661 378.363 149.72 376.962 146.881 375.925L143.523 374.657C143.101 374.533 142.698 374.351 142.324 374.117Z" fill="#E0E0E0"/>
<path d="M145.975 419.392C146.53 419.477 147.076 419.617 147.605 419.811L151.989 421.179C155.681 422.359 160.766 424.024 166.381 425.91C171.995 427.796 177.059 429.517 180.719 430.807L185.038 432.351C185.575 432.527 186.099 432.745 186.604 433.002C186.044 432.918 185.495 432.778 184.962 432.583L180.579 431.215C176.886 430.035 171.801 428.37 166.187 426.484C160.572 424.598 155.508 422.866 151.859 421.587L147.54 420.032C147.001 419.867 146.477 419.653 145.975 419.392Z" fill="#E0E0E0"/>
<path d="M185.719 432.395C186.099 431.918 186.522 431.479 186.982 431.083L190.556 427.653C193.568 424.752 197.714 420.726 202.173 416.149C206.632 411.572 210.573 407.326 213.402 404.238L216.749 400.576C217.143 400.108 217.573 399.673 218.034 399.274C217.719 399.793 217.358 400.28 216.954 400.73C216.22 401.646 215.119 402.936 213.715 404.524C210.962 407.701 207.075 412.002 202.594 416.579C198.114 421.156 193.957 425.149 190.847 427.973C189.293 429.373 188.029 430.509 187.133 431.281C186.693 431.692 186.22 432.065 185.719 432.395Z" fill="#E0E0E0"/>
<path d="M78.3534 56.8599L67.8156 53.5511C67.8156 53.5511 65.0515 62.5951 55.8093 59.8268C54.0201 59.3234 52.4282 58.2644 51.254 56.7963C50.0799 55.3281 49.3815 53.5235 49.2556 51.632C49.1172 50.037 49.3537 48.4313 49.9452 46.9484C50.5368 45.4655 51.4663 44.1484 52.6566 43.1064C55.3667 40.6579 60.1173 39.169 66.8223 42.7094L74.2398 18.445L63.8207 15.1362L59.5019 29.3529C59.5019 29.3529 43.6951 28.5478 38.6745 44.9924C33.8699 60.7312 46.5671 68.7935 52.4839 70.6795C56.9754 72.1133 72.7498 75.9074 78.3534 56.8599Z" fill="#F5F5F5"/>
<path d="M65.2318 10.0863L75.8066 13.457L78.8877 3.37065L68.3129 -0.000100587L65.2318 10.0863Z" fill="#F5F5F5"/>
<path d="M107.428 29.4636L111.65 28.3606C111.521 27.8709 111.49 27.3597 111.558 26.8574C111.627 26.3551 111.793 25.8719 112.048 25.4367C112.303 25.0015 112.641 24.623 113.042 24.3239C113.443 24.0247 113.898 23.8109 114.382 23.6953C115.085 23.4783 115.837 23.4903 116.534 23.7294C117.23 23.9685 117.836 24.423 118.269 25.0298C118.636 25.5337 118.881 26.1191 118.984 26.7382C119.087 27.3574 119.046 27.9927 118.862 28.5922C118.463 29.993 117.178 31.515 114.198 31.7687L116.714 41.4854L120.882 40.3825L119.413 34.6914C120.994 33.7177 122.217 32.2399 122.894 30.486C123.571 28.732 123.664 26.7993 123.16 24.9857C121.54 18.6769 115.602 18.71 113.259 19.3387C111.445 19.7688 105.388 21.8754 107.428 29.4636Z" fill="#EBEBEB"/>
<path d="M122.352 41.8001L118.1 42.9644L119.164 47.019L123.416 45.8548L122.352 41.8001Z" fill="#EBEBEB"/>
<path d="M455.967 141.091L460.07 142.602C460.242 142.127 460.505 141.693 460.844 141.324C461.183 140.955 461.591 140.659 462.044 140.453C462.497 140.248 462.985 140.137 463.48 140.127C463.976 140.117 464.468 140.209 464.928 140.396C465.619 140.623 466.225 141.063 466.662 141.655C467.099 142.248 467.345 142.964 467.368 143.705C467.394 144.337 467.272 144.967 467.013 145.542C466.754 146.118 466.365 146.622 465.878 147.014C464.799 147.929 462.866 148.425 460.275 146.903L456.917 156.355L460.977 157.855L462.942 152.341C464.784 152.457 466.614 151.953 468.149 150.905C469.684 149.857 470.84 148.323 471.439 146.539C473.598 140.407 468.729 136.999 466.429 136.15C464.669 135.444 458.515 133.668 455.967 141.091Z" fill="#EBEBEB"/>
<path d="M460.37 159.771L456.248 158.246L454.855 162.176L458.976 163.701L460.37 159.771Z" fill="#EBEBEB"/>
<path d="M20.546 189.09L29.1835 185.671C29.1835 185.671 26.3763 178.226 33.9018 175.105C35.3421 174.483 36.936 174.332 38.4637 174.673C39.9914 175.015 41.3777 175.833 42.4314 177.013C43.328 177.995 43.985 179.178 44.3489 180.468C44.7129 181.758 44.7736 183.117 44.526 184.436C43.9862 187.502 41.6109 191.053 35.3594 192.278L42.9173 212.274L51.5549 208.899L47.1281 197.186C47.1281 197.186 57.9251 189.267 52.8613 175.701C47.9487 162.73 35.381 164.208 30.5548 166.116C26.8298 167.583 14.4781 173.506 20.546 189.09Z" fill="#F5F5F5"/>
<path d="M53.1915 212.969L44.4766 216.398L47.6129 224.714L56.3279 221.284L53.1915 212.969Z" fill="#F5F5F5"/>
<path d="M459.345 222.74L453.191 225.156C453.191 225.156 455.178 230.439 449.844 232.644C448.823 233.08 447.695 233.185 446.613 232.944C445.532 232.704 444.549 232.129 443.798 231.299C443.163 230.603 442.697 229.764 442.44 228.85C442.183 227.935 442.142 226.972 442.318 226.038C442.707 223.832 444.391 221.362 448.797 220.523L443.506 206.307L437.417 208.7L440.548 217.005C438.332 218.737 436.734 221.165 436 223.915C435.267 226.665 435.438 229.585 436.488 232.225C439.954 241.413 448.829 240.376 452.284 239.019C454.897 237.972 463.643 233.781 459.345 222.74Z" fill="#F5F5F5"/>
<path d="M436.213 205.819L442.389 203.389L440.168 197.502L433.992 199.932L436.213 205.819Z" fill="#F5F5F5"/>
<path d="M476.73 466.63C476.73 466.795 370.001 466.917 238.376 466.917C106.75 466.917 0 466.795 0 466.63C0 466.465 106.706 466.343 238.376 466.343C370.045 466.343 476.73 466.476 476.73 466.63Z" fill="#263238"/>
<path d="M68.4634 437.987C69.5431 433.928 66.8763 429.858 63.9611 426.958C61.0459 424.057 57.5585 421.388 56.0361 417.495C53.5744 411.186 56.8783 403.024 52.6891 397.763C50.2165 394.675 45.7898 393.638 43.598 390.33C42.5846 388.506 41.9144 386.505 41.6222 384.429C39.2924 373.95 34.2468 364.305 27.0139 356.503C26.5263 365.836 28.5066 375.132 32.747 383.414C34.4422 386.723 36.5368 389.944 37.0658 393.638C37.9836 399.627 34.7013 405.771 36.1481 411.682C37.8 418.41 45.196 422.921 45.5415 429.847C45.8438 435.704 40.8448 440.877 41.2227 446.7C41.5255 449.194 42.4105 451.577 43.8032 453.649C48.2299 461.182 54.7513 466.365 64.6197 466.2L76.7123 466.63L68.4634 437.987Z" fill="#FF725E"/>
<g opacity="0.3">
<path d="M68.4634 437.987C69.5431 433.928 66.8763 429.858 63.9611 426.958C61.0459 424.057 57.5585 421.388 56.0361 417.495C53.5744 411.186 56.8783 403.024 52.6891 397.763C50.2165 394.675 45.7898 393.638 43.598 390.33C42.5846 388.506 41.9144 386.505 41.6222 384.429C39.2924 373.95 34.2468 364.305 27.0139 356.503C26.5263 365.836 28.5066 375.132 32.747 383.414C34.4422 386.723 36.5368 389.944 37.0658 393.638C37.9836 399.627 34.7013 405.771 36.1481 411.682C37.8 418.41 45.196 422.921 45.5415 429.847C45.8438 435.704 40.8448 440.877 41.2227 446.7C41.5255 449.194 42.4105 451.577 43.8032 453.649C48.2299 461.182 54.7513 466.365 64.6197 466.2L76.7123 466.63L68.4634 437.987Z" fill="black"/>
</g>
<path d="M79.1517 466.884C80.2592 467.058 81.3879 467.036 82.4879 466.818C83.8235 466.61 85.1361 466.27 86.4072 465.803C88.1626 465.179 89.8045 464.262 91.2659 463.09C92.1451 462.367 92.8321 461.43 93.2633 460.365C93.6245 459.172 93.8136 457.931 93.8247 456.682C93.8491 455.346 93.9464 454.013 94.1163 452.689C94.3438 451.279 94.8429 449.93 95.5847 448.719C97.0099 446.16 99.3852 443.733 100.141 440.259C100.897 436.785 100.379 433.145 99.8171 429.439C99.2556 425.734 98.7374 421.719 100.098 417.837C101.458 413.954 104.049 410.48 105.378 406.135C106.706 401.789 106.079 397.002 106.36 392.337C106.443 389.967 106.978 387.637 107.936 385.477C108.908 383.271 110.269 381.231 111.327 378.936C113.486 374.282 113.853 369.01 114.436 363.837C114.728 361.234 115.008 358.599 115.3 355.951C115.484 353.275 115.936 350.625 116.65 348.044C117.469 345.441 118.435 342.889 119.543 340.4C120.114 339.113 120.583 337.782 120.947 336.419C121.15 335.008 121.28 333.587 121.335 332.161C121.464 329.308 121.356 326.448 121.012 323.614C120.688 320.768 120.18 317.945 119.878 315.088C119.878 314.912 119.878 314.746 119.878 314.592L119.813 314.029L119.327 314.272C116.774 315.61 114.558 317.531 112.849 319.886C111.173 322.192 109.825 324.728 108.843 327.419C106.824 332.724 106.101 338.283 105.086 343.588C104.071 348.893 102.775 354.11 100.119 358.521C98.7914 360.727 97.1826 362.734 95.8006 364.874C94.2999 366.962 93.2745 369.366 92.799 371.911C92.0756 377.139 94.8937 381.727 94.3106 386.359C94.0476 388.628 93.3112 390.813 92.1512 392.767C91.0715 394.741 89.7651 396.572 88.5342 398.403C87.2867 400.199 86.2025 402.108 85.2951 404.105C84.4411 406.06 83.9365 408.156 83.8052 410.293C83.5136 414.462 84.0859 418.41 83.8052 422.138C83.468 425.691 82.4519 429.142 80.8144 432.296C79.3568 435.329 77.7265 438.075 76.366 440.744C75.6858 442.068 75.0488 443.369 74.5306 444.682C74.0401 445.942 73.6783 447.25 73.4509 448.586C73.0895 450.919 73.0604 453.293 73.3645 455.634C73.6817 458.898 74.8776 462.01 76.8195 464.623C77.1164 465.018 77.4451 465.387 77.802 465.726C78.0405 465.981 78.3047 466.21 78.5902 466.409C79.0437 466.751 79.2812 466.906 79.2812 466.906C78.4181 466.209 77.6324 465.417 76.9383 464.545C75.0846 461.923 73.9648 458.835 73.6992 455.612C73.4243 453.3 73.4752 450.96 73.8504 448.663C74.0777 447.36 74.4396 446.084 74.93 444.858C75.4771 443.531 76.0934 442.235 76.7763 440.976C78.1475 438.329 79.7887 435.594 81.2787 432.539C82.9651 429.336 84.0146 425.823 84.3666 422.204C84.6905 418.399 84.1291 414.429 84.4314 410.37C84.5705 408.302 85.0638 406.275 85.889 404.381C86.8019 402.425 87.886 400.557 89.1281 398.8C90.3589 396.969 91.6654 395.138 92.7882 393.12C94.0206 391.092 94.8088 388.816 95.0988 386.447C95.6818 381.517 92.8854 376.907 93.6088 372.043C94.0821 369.61 95.0736 367.313 96.5132 365.315C97.8844 363.209 99.504 361.201 100.832 358.94C103.585 354.407 104.913 349.091 105.917 343.764C106.921 338.437 107.666 332.922 109.653 327.717C110.609 325.1 111.921 322.635 113.551 320.393C115.194 318.133 117.326 316.292 119.781 315.011L119.23 314.691C119.23 314.856 119.23 315.022 119.284 315.198C119.586 318.088 120.094 320.912 120.364 323.735C120.705 326.526 120.809 329.341 120.677 332.15C120.622 333.531 120.5 334.907 120.31 336.275C119.961 337.594 119.506 338.882 118.949 340.125C117.835 342.64 116.862 345.217 116.034 347.845C115.314 350.467 114.859 353.158 114.674 355.874C114.393 358.532 114.101 361.168 113.821 363.771C113.238 368.966 112.86 374.15 110.798 378.639C109.718 380.844 108.422 382.951 107.418 385.201C106.43 387.442 105.88 389.859 105.799 392.315C105.529 397.08 106.133 401.745 104.87 405.958C103.607 410.171 100.983 413.679 99.6551 417.66C98.3271 421.642 98.813 425.855 99.396 429.55C99.979 433.244 100.562 436.884 99.7847 440.16C99.0073 443.435 96.7831 445.884 95.3363 448.509C94.5735 449.773 94.0635 451.179 93.8355 452.645C93.6724 453.984 93.5859 455.332 93.5764 456.682C93.5782 457.9 93.4035 459.111 93.0582 460.277C92.6582 461.288 92.0159 462.179 91.1903 462.869C89.7681 464.04 88.1667 464.965 86.4504 465.604C85.196 466.098 83.898 466.468 82.5743 466.707C81.7653 466.857 80.9455 466.938 80.1234 466.95C79.4432 466.884 79.1517 466.884 79.1517 466.884Z" fill="#263238"/>
<path d="M117.352 321.408C117.294 321.526 117.254 321.652 117.233 321.783L116.974 322.886C116.737 323.867 116.445 325.334 115.992 327.165C115.538 328.996 114.426 331.069 113.487 333.617C112.386 336.485 111.428 339.408 110.615 342.374C109.686 345.683 108.876 349.323 108.013 353.249C107.279 357.431 105.978 361.489 104.147 365.304C103.154 367.311 101.988 369.341 101.156 371.569C100.285 373.844 99.7005 376.223 99.4182 378.65C98.804 383.674 97.9319 388.663 96.8053 393.594C94.3868 403.708 92.0762 413.348 89.9708 422.127C87.8654 430.906 85.8788 438.759 84.2376 445.399C82.5965 452.038 81.3548 457.332 80.4479 461.115C80.0268 462.924 79.6921 464.347 79.4546 465.395C79.3574 465.847 79.271 466.211 79.2062 466.497C79.1943 466.626 79.1943 466.755 79.2062 466.884C79.2689 466.769 79.3162 466.647 79.3466 466.52C79.4222 466.222 79.5301 465.869 79.6597 465.417C79.9296 464.391 80.3075 462.968 80.7934 461.17C81.7651 457.42 83.1363 452.093 84.8315 445.531C86.5266 438.969 88.5024 431.027 90.7158 422.303C92.9292 413.579 95.1749 403.873 97.6151 393.749C98.7344 388.804 99.5851 383.8 100.163 378.76C100.439 376.392 101.005 374.068 101.847 371.844C102.7 369.639 103.791 367.664 104.784 365.635C106.944 361.609 107.797 357.286 108.65 353.393C109.503 349.499 110.258 345.815 111.144 342.529C112.029 339.242 112.958 336.308 113.886 333.771C114.815 331.235 115.84 329.139 116.283 327.242C116.726 325.345 116.931 323.933 117.125 322.919C117.197 322.463 117.262 322.095 117.32 321.816C117.352 321.54 117.374 321.408 117.352 321.408Z" fill="#263238"/>
<path d="M81.291 466.939C89.1836 462.141 91.4509 447.582 88.1579 438.825C84.8648 430.068 79.0992 422.061 78.2138 412.719C77.5228 405.539 79.8334 398.171 78.2138 391.157C76.0005 381.683 66.9526 374.348 67.0606 364.609C67.1146 359.15 70.1593 354.01 69.911 348.551C69.6195 341.867 64.5881 336.551 61.4785 330.661C56.7063 321.628 56.3932 310.963 54.7628 300.882C53.1325 290.802 49.3643 279.927 40.5756 274.953C39.28 283.544 37.0666 289.434 37.7576 301.07C38.0167 305.25 42.7674 313.202 43.4152 322.412C43.8039 327.926 44.063 333.375 44.3977 338.845C44.7324 344.316 45.0563 349.61 46.9242 354.595C48.3602 358.422 50.66 361.896 51.7289 365.845C53.7263 373.267 51.0919 381.286 52.7114 388.83C54.0826 395.205 58.4014 400.686 59.2868 407.149C60.5176 416.226 54.7736 425.667 57.7104 434.325C59.1788 438.627 62.6338 442.046 63.6163 446.513C64.3829 449.954 63.5516 453.604 64.2426 457.057C65.3223 462.637 75.7521 466.983 81.3126 466.619" fill="#FF725E"/>
<path d="M42.7337 283.434C42.719 283.595 42.719 283.758 42.7337 283.919C42.7337 284.283 42.8417 284.747 42.9065 285.331C43.09 286.577 43.2951 288.397 43.7054 290.757C44.1157 293.118 45.3466 295.787 46.2967 299.007C47.2468 302.228 48.3049 305.912 49.1903 310.037C50.0756 314.162 50.853 318.761 51.6412 323.691C52.4294 328.621 53.2931 333.992 55.6901 339.132C56.7698 341.702 58.0438 344.282 58.9292 347.04C59.8363 349.862 60.3949 352.789 60.5919 355.753C61.0333 362.041 61.8082 368.3 62.9132 374.503C65.3318 387.23 67.6315 399.352 69.7261 410.392C71.8207 421.432 73.9262 431.281 75.6105 439.619C77.2948 447.957 78.6768 454.619 79.6378 459.318L80.7175 464.667C80.847 465.24 80.9442 465.692 81.0306 466.045C81.0598 466.207 81.1031 466.366 81.1601 466.52C81.1792 466.358 81.1792 466.196 81.1601 466.034C81.0954 465.67 81.0198 465.218 80.9226 464.634C80.6851 463.354 80.3504 461.545 79.9293 459.251C79.0223 454.542 77.7699 447.814 76.1395 439.509C74.5092 431.204 72.5765 421.245 70.4279 410.248C68.2793 399.252 66.1092 387.087 63.6798 374.37C62.5741 368.168 61.7956 361.909 61.3477 355.621C61.1422 352.596 60.5654 349.609 59.631 346.731C58.67 343.93 57.4068 341.338 56.2947 338.779C53.9194 333.716 53.0556 328.433 52.235 323.525C51.4145 318.617 50.6263 314.007 49.687 309.86C48.7476 305.713 47.7219 302.007 46.6638 298.831C45.6057 295.654 44.4288 292.963 43.9538 290.658C43.4787 288.353 43.252 286.5 43.0252 285.276C42.9173 284.702 42.8309 284.239 42.7661 283.875C42.7638 283.728 42.753 283.58 42.7337 283.434Z" fill="#263238"/>
<path d="M423.5 53.033H419.181C419.184 53.5334 419.089 54.0293 418.901 54.4913C418.713 54.9534 418.436 55.3722 418.086 55.7229C417.737 56.0736 417.322 56.3491 416.867 56.5331C416.411 56.7171 415.924 56.8058 415.435 56.794C414.711 56.8205 413.998 56.6158 413.394 56.2086C412.791 55.8013 412.326 55.2117 412.066 54.522C411.838 53.9476 411.747 53.3265 411.8 52.7092C411.852 52.092 412.047 51.4962 412.368 50.9706C413.102 49.7353 414.7 48.6213 417.594 49.1397V39.2134H413.351V45.0148C411.61 45.5384 410.085 46.6312 409.01 48.1254C407.935 49.6197 407.37 51.4328 407.402 53.2867C407.402 59.7057 413.038 61.1947 415.456 61.1947C417.302 61.2388 423.586 60.7866 423.5 53.033Z" fill="#FF725E"/>
<path d="M413.317 37.2061H417.625V33.0921H413.317V37.2061Z" fill="#FF725E"/>
<path d="M447.048 47.1653C447.062 46.9781 447.062 46.79 447.048 46.6028C447.048 46.2058 447.048 45.6653 447.048 44.9705C447.048 44.6175 447.048 44.2095 446.994 43.7683C446.94 43.3271 446.875 42.8418 446.799 42.3345C446.724 41.8271 446.648 41.2316 446.562 40.647L446.108 38.772C445.306 35.5431 443.993 32.4696 442.221 29.6729C439.648 25.5312 436.18 22.0473 432.083 19.489C427.986 16.9308 423.369 15.3663 418.587 14.9158C417.151 14.7862 415.708 14.7567 414.268 14.8275C413.545 14.8275 412.8 14.8275 412.109 14.9709L409.885 15.3128C406.833 15.8922 403.88 16.9213 401.117 18.3679C398.234 19.9267 395.583 21.8988 393.246 24.2245C390.854 26.7014 388.854 29.5444 387.319 32.6508C385.667 35.8534 384.585 39.3301 384.123 42.919C383.988 43.8283 383.912 44.7458 383.896 45.6653C383.824 46.5862 383.806 47.5106 383.842 48.4337C384.077 54.3503 385.888 60.0893 389.079 65.0327V64.6908C387.578 68.5179 386.099 72.2789 384.652 75.9406L384.393 76.6134L385.073 76.4149L396.842 73.1061L396.561 73.0399C400.525 76.1051 405.142 78.1686 410.036 79.0619C412.306 79.4942 414.619 79.6386 416.924 79.492C418.036 79.4751 419.144 79.3682 420.239 79.1722L421.848 78.9185C422.377 78.8193 422.927 78.6538 423.402 78.5325C430.655 76.6552 437.016 72.2019 441.347 65.9702C442.962 63.6745 444.259 61.1618 445.201 58.5034C445.407 57.9188 445.601 57.4004 445.784 56.8269C445.968 56.2534 446.065 55.724 446.184 55.2277C446.303 54.7314 446.432 54.224 446.54 53.7608C446.648 53.2976 446.681 52.8454 446.745 52.4152C446.843 51.566 446.994 50.816 447.026 50.2094C447.059 49.6028 447.026 49.0182 447.026 48.555C447.026 48.0918 447.026 47.805 447.026 47.5513C447.026 47.2977 447.026 47.2094 447.026 47.2094C447.01 47.3228 447.01 47.438 447.026 47.5513C447.026 47.805 447.026 48.1359 446.951 48.555C446.875 48.9741 446.886 49.5586 446.843 50.1983C446.799 50.838 446.637 51.588 446.508 52.4042C445.478 58.5084 442.735 64.1759 438.612 68.7182C434.49 73.2605 429.164 76.4822 423.284 77.9921C422.776 78.1134 422.269 78.2678 421.75 78.3671L420.163 78.6097C419.092 78.7923 418.01 78.8918 416.924 78.9075C414.662 79.0293 412.393 78.8775 410.165 78.4553C405.386 77.5568 400.879 75.5285 397.004 72.5326L396.874 72.4223H396.712L384.933 75.7311L385.343 76.2053L389.781 64.9665L389.845 64.79L389.748 64.6246C387.622 61.3387 386.113 57.6771 385.3 53.827C384.927 52.0407 384.703 50.2254 384.63 48.4006C384.594 47.4996 384.612 46.5972 384.684 45.6984C384.691 44.8008 384.763 43.9049 384.9 43.0183C385.315 39.5135 386.335 36.1115 387.913 32.9707C389.413 29.9348 391.361 27.1524 393.689 24.7208C395.976 22.4377 398.572 20.5024 401.398 18.9745C404.099 17.5397 406.991 16.5177 409.982 15.9415L412.141 15.5996C412.865 15.4893 413.588 15.5003 414.301 15.4452C415.708 15.3768 417.118 15.4026 418.522 15.5224C423.225 15.9429 427.773 17.4528 431.82 19.9372C435.866 22.4215 439.305 25.8152 441.876 29.8604C443.658 32.6083 444.992 35.6326 445.828 38.8162L446.314 40.6691C446.411 41.2536 446.497 41.772 446.583 42.3235C446.67 42.8749 446.735 43.3161 446.81 43.7573C446.886 44.1984 446.864 44.5955 446.897 44.9484C446.897 45.6322 446.983 46.1727 447.015 46.5697C446.995 46.7687 447.006 46.9698 447.048 47.1653Z" fill="#263238"/>
<path d="M125.07 177.234H187.423C187.423 177.234 187.423 123.753 241.829 122.804C270.085 122.297 284.736 141.212 290.696 155.694C297.606 172.513 295.511 191.682 286.248 207.289C275.677 225.101 252.896 243.001 210.874 235.435L210.474 377.349H272.136V293.217C272.136 293.217 358.609 270.387 358.609 172.999C358.609 79.8566 284.876 59.7392 245.241 58.4378C223.193 57.7209 215.203 56.7503 187.93 60.7098C153.175 65.7832 124.336 107.011 125.07 177.234Z" fill="#FF725E"/>
<path d="M272.882 406.929H210.303V466.631H272.882V406.929Z" fill="#FF725E"/>
<path opacity="0.1" d="M272.882 406.929H210.303V466.631H272.882V406.929Z" fill="black"/>
<path opacity="0.1" d="M125.07 177.234H187.423C187.423 177.234 187.423 123.753 241.829 122.804C270.085 122.297 284.736 141.212 290.696 155.694C297.606 172.513 295.511 191.682 286.248 207.289C275.677 225.101 252.896 243.001 210.874 235.435L210.474 377.349H272.136V293.217C272.136 293.217 358.609 270.387 358.609 172.999C358.609 79.8566 284.876 59.7392 245.241 58.4378C223.193 57.7209 215.203 56.7503 187.93 60.7098C153.175 65.7832 124.336 107.011 125.07 177.234Z" fill="black"/>
<path d="M99.2339 177.234H161.597C161.597 177.234 161.597 123.753 216.003 122.805C244.259 122.297 258.91 141.213 264.86 155.694C271.78 172.514 269.686 191.682 260.422 207.289C249.852 225.101 226.671 241.292 184.649 233.759V377.349H246.31V293.218C246.31 293.218 332.783 270.387 332.783 172.999C332.783 79.8569 251.007 58.2285 216.014 58.2285C189.248 58.2616 98.0571 64.8681 99.2339 177.234Z" fill="#FF725E"/>
<path opacity="0.3" d="M99.2339 177.234H161.597C161.597 177.234 161.597 123.753 216.003 122.805C244.259 122.297 258.91 141.213 264.86 155.694C271.78 172.514 269.686 191.682 260.422 207.289C249.852 225.101 226.671 241.292 184.649 233.759V377.349H246.31V293.218C246.31 293.218 332.783 270.387 332.783 172.999C332.783 79.8569 251.007 58.2285 216.014 58.2285C189.248 58.2616 98.0571 64.8681 99.2339 177.234Z" fill="black"/>
<path d="M247.056 406.929H184.477V466.631H247.056V406.929Z" fill="#FF725E"/>
<path opacity="0.3" d="M247.056 406.929H184.477V466.631H247.056V406.929Z" fill="black"/>
<path d="M223.042 123.092C222.734 123.119 222.423 123.119 222.114 123.092C221.498 123.092 220.613 122.882 219.458 122.871C216.192 122.707 212.917 122.847 209.676 123.29C204.869 123.912 200.139 125.047 195.564 126.676C192.867 127.639 190.241 128.796 187.704 130.139C184.962 131.539 182.38 133.244 180.006 135.224C177.647 137.221 175.534 139.503 173.711 142.018C171.983 144.343 170.407 146.782 168.993 149.319C166.632 153.64 164.759 158.221 163.411 162.973C162.497 166.181 161.868 169.466 161.532 172.789C161.403 173.959 161.37 174.885 161.338 175.503C161.338 175.821 161.31 176.138 161.251 176.451C161.223 176.136 161.223 175.818 161.251 175.503C161.251 174.874 161.251 173.947 161.349 172.767C161.597 169.409 162.172 166.083 163.065 162.841C164.364 158.033 166.212 153.399 168.572 149.032C169.989 146.468 171.572 144.003 173.312 141.654C175.15 139.097 177.289 136.782 179.682 134.761C182.085 132.754 184.7 131.026 187.477 129.61C190.03 128.242 192.674 127.063 195.391 126.081C200.008 124.457 204.783 123.348 209.633 122.772C212.896 122.362 216.191 122.285 219.469 122.54C220.36 122.598 221.246 122.709 222.125 122.871C222.435 122.922 222.742 122.996 223.042 123.092Z" fill="#263238"/>
<path d="M316.998 111.742C316.998 111.742 316.923 111.665 316.793 111.5C316.664 111.334 316.469 111.048 316.253 110.728L314.191 107.75C313.748 107.11 313.273 106.371 312.712 105.61L310.768 103.195L308.544 100.404C307.734 99.4337 306.784 98.4962 305.834 97.4705C304.884 96.4448 303.912 95.3529 302.811 94.3051C301.71 93.2573 300.533 92.1875 299.324 91.0846C298.719 90.5331 298.125 89.9816 297.477 89.3971L295.469 87.7758C294.098 86.6729 292.737 85.5699 291.258 84.467C284.811 79.7549 277.972 75.6289 270.82 72.1363L265.13 69.5114L259.483 67.3055C257.637 66.5224 255.758 65.971 253.944 65.3533C252.13 64.7357 250.359 64.107 248.545 63.6769L243.385 62.2982C241.711 61.846 240.048 61.5703 238.461 61.1953C236.874 60.8203 235.341 60.4894 233.84 60.3019L229.521 59.6622C226.79 59.188 224.285 59.0887 222.104 58.8681C221.024 58.7799 219.944 58.6586 219.048 58.6145L216.478 58.5483L212.915 58.427H211.987H211.674C211.778 58.4104 211.883 58.4104 211.987 58.427H212.915H216.478H219.059C219.998 58.427 221.024 58.5593 222.125 58.6365C224.285 58.824 226.833 58.9012 229.564 59.3534L233.883 59.949C235.384 60.1255 236.917 60.5225 238.515 60.8203C240.113 61.1181 241.754 61.4269 243.471 61.9232L248.653 63.2909C250.446 63.71 252.216 64.3938 254.052 64.9563C255.887 65.5188 257.755 66.0592 259.602 66.8974L265.281 69.1033L271.003 71.7393C278.193 75.2398 285.059 79.3963 291.517 84.1582C293.007 85.2611 294.368 86.4413 295.739 87.5332L297.747 89.0221C298.395 89.5736 298.989 90.125 299.594 90.7206L303.07 94.0294C304.15 95.1323 305.122 96.2352 306.083 97.2389C307.043 98.2426 307.961 99.2241 308.771 100.206L310.93 103.018L312.852 105.467C313.403 106.239 313.867 106.989 314.299 107.673C315.141 108.963 315.8 109.978 316.264 110.706L316.772 111.511C316.857 111.578 316.933 111.655 316.998 111.742Z" fill="#263238"/>
<path d="M310.498 248.505C310.37 248.744 310.214 248.966 310.034 249.167L308.544 250.964C307.929 251.77 307.151 252.729 306.19 253.799C305.229 254.869 304.204 256.126 302.951 257.428C301.699 258.729 300.36 260.185 298.838 261.652C297.315 263.119 295.663 264.663 293.903 266.273C286.184 273.155 277.722 279.117 268.682 284.041C266.587 285.144 264.611 286.247 262.7 287.096C260.789 287.945 259.008 288.817 257.366 289.523C255.725 290.229 254.214 290.813 252.897 291.331C251.579 291.85 250.424 292.269 249.474 292.578L247.314 293.295C247.064 293.396 246.803 293.47 246.537 293.515C246.77 293.379 247.016 293.268 247.271 293.184L249.431 292.368C250.37 292.026 251.504 291.585 252.81 291.034C254.117 290.482 255.628 289.931 257.248 289.148C258.867 288.365 260.66 287.626 262.527 286.666C264.395 285.707 266.393 284.692 268.477 283.578C272.59 281.262 277.028 278.549 281.508 275.416C285.989 272.284 290.017 268.986 293.601 265.876C295.361 264.288 297.045 262.799 298.546 261.299C300.047 259.799 301.45 258.442 302.692 257.141C303.934 255.839 305.024 254.637 305.996 253.578C306.968 252.52 307.767 251.593 308.415 250.821L309.926 249.067C310.102 248.864 310.293 248.676 310.498 248.505Z" fill="#263238"/>
<path d="M245.219 372.341C245.057 372.341 244.928 354.628 244.928 332.78C244.928 310.931 245.057 293.207 245.219 293.207C245.381 293.207 245.5 310.92 245.5 332.78C245.5 354.639 245.37 372.341 245.219 372.341Z" fill="#263238"/>
<path d="M247.595 462.583C247.433 462.583 247.314 450.153 247.314 434.822C247.314 419.491 247.433 407.05 247.595 407.05C247.757 407.05 247.876 419.48 247.876 434.822C247.876 450.164 247.746 462.583 247.595 462.583Z" fill="#263238"/>
<path d="M308.977 168.774C307.897 170.98 311.925 172.789 314.246 173.506C316.614 174.1 319.065 174.271 321.491 174.013C324.73 173.837 328.045 173.528 330.841 171.896C333.29 170.346 335.247 168.105 336.477 165.444C337.689 162.791 338.648 160.024 339.338 157.183C339.338 157.183 313.825 158.881 308.977 168.774Z" fill="#FF725E"/>
<g opacity="0.4">
<path d="M308.977 168.774C307.897 170.98 311.925 172.789 314.246 173.506C316.614 174.1 319.065 174.271 321.491 174.013C324.73 173.837 328.045 173.528 330.841 171.896C333.29 170.346 335.247 168.105 336.477 165.444C337.689 162.791 338.648 160.024 339.338 157.183C339.338 157.183 313.825 158.881 308.977 168.774Z" fill="black"/>
</g>
<path d="M381.036 161.715C385.242 164.763 390.282 166.376 395.439 166.326C397.911 166.466 400.348 165.682 402.295 164.12C403.126 163.337 403.753 162.344 404.606 161.594C405.189 161.087 405.869 160.701 406.419 160.16C406.71 159.905 406.934 159.58 407.072 159.214C407.209 158.848 407.256 158.453 407.208 158.065C406.994 157.107 406.469 156.251 405.718 155.638C402.792 153.94 399.293 154.006 395.925 154.083C392.554 154.232 389.223 154.898 386.046 156.057C383.433 156.962 380.701 158.263 379.373 160.69" fill="#FF725E"/>
<g opacity="0.4">
<path d="M407.208 158.064C406.826 157.134 406.154 156.359 405.297 155.859C402.371 154.16 399.293 154.006 395.925 154.083C392.554 154.232 389.223 154.897 386.046 156.057C383.433 156.962 380.701 158.263 379.373 160.689L381.036 161.715C385.242 164.763 390.282 166.376 395.439 166.325C397.911 166.466 400.348 165.682 402.295 164.12C403.126 163.336 403.753 162.344 404.606 161.594C405.189 161.086 405.869 160.7 406.419 160.16C406.71 159.904 406.934 159.579 407.072 159.214C407.209 158.848 407.256 158.453 407.208 158.064Z" fill="black"/>
</g>
<path d="M331.218 201.299L385.041 202.027C385.151 202.027 385.259 202 385.357 201.95C385.454 201.899 385.539 201.826 385.604 201.736C385.669 201.646 385.713 201.541 385.731 201.431C385.75 201.321 385.743 201.208 385.711 201.101L379.394 180.983C379.394 180.983 380.323 170.925 381.608 158.836C383.562 140.473 386.164 117.389 386.197 117.455C382.515 106.911 360.791 105.124 360.791 105.124L336.034 106.624L335.17 105.135L328.044 108.521C326.49 109.26 324.995 110.123 323.574 111.102C318.867 114.311 307.53 121.69 305.457 129.907C300.674 148.932 308.771 170.164 308.771 170.164L313.976 166.005C315.286 164.974 316.664 164.034 318.1 163.193L328.53 191.748C327.909 192.147 327.384 192.684 326.991 193.317C326.599 193.95 326.35 194.665 326.263 195.409C326.176 197.726 327.342 200.505 331.218 201.299Z" fill="#FF725E"/>
<g opacity="0.3">
<path d="M354.312 167.638C356.018 158.263 355.122 148.624 354.204 139.139C351.224 146.859 351.332 155.683 348.169 163.337C347.781 164.145 347.498 165.002 347.326 165.885C347.244 166.328 347.266 166.785 347.389 167.218C347.513 167.652 347.736 168.049 348.039 168.377C348.903 169.182 350.198 168.741 351.343 168.609C352.367 168.409 353.364 168.083 354.312 167.638Z" fill="black"/>
</g>
<g opacity="0.4">
<path d="M334.458 189.344C338.776 190.877 343.376 188.02 347.943 187.513C350.966 187.182 353.989 187.888 356.991 188.384C363.06 189.387 369.235 189.543 375.346 188.847C376.283 188.795 377.201 188.551 378.045 188.13C378.481 187.827 378.838 187.419 379.084 186.942C379.331 186.465 379.46 185.934 379.459 185.395C369.289 184.292 359.129 183.697 348.958 182.627C346.426 182.186 343.833 182.272 341.335 182.881C338.269 183.851 335.937 186.311 333.777 188.748" fill="black"/>
</g>
<path d="M405.653 154.447C401.259 144.333 385.765 116.363 385.765 116.363L373.77 131.727L376.566 161.892C376.566 161.892 382.904 154.667 400.622 154.524C401.909 154.577 403.169 154.923 404.309 155.537C405.448 156.152 406.439 157.019 407.208 158.075L405.653 154.447Z" fill="#FF725E"/>
<path d="M333.625 149.098C332.769 146.953 332.09 144.74 331.595 142.48C330.925 140.279 330.434 138.025 330.127 135.741C330.97 137.889 331.645 140.102 332.146 142.359C332.817 144.56 333.311 146.814 333.625 149.098Z" fill="#263238"/>
<path d="M372.863 129.686C373.253 129.968 373.615 130.289 373.943 130.646C374.896 131.587 375.791 132.589 376.62 133.646C379.412 137.132 381.375 141.232 382.353 145.623C382.861 148.051 382.975 150.548 382.688 153.013C382.418 155.274 381.997 157.259 381.716 158.936C381.436 160.612 381.263 161.98 381.176 162.928C381.174 163.421 381.123 163.913 381.025 164.395C380.949 163.903 380.927 163.403 380.961 162.906C381.008 161.555 381.131 160.207 381.328 158.869C381.554 157.182 381.932 155.175 382.181 152.958C382.43 150.548 382.303 148.113 381.803 145.745C380.836 141.435 378.96 137.393 376.307 133.899C374.331 131.186 372.776 129.774 372.863 129.686Z" fill="#263238"/>
<path d="M361.872 198.873C361.497 199.043 361.101 199.162 360.695 199.226C360.234 199.35 359.765 199.442 359.291 199.501C358.741 199.579 358.114 199.7 357.412 199.733C355.768 199.887 354.112 199.887 352.467 199.733C350.455 199.522 348.466 199.115 346.529 198.52C344.602 197.887 342.736 197.071 340.958 196.082C339.516 195.26 338.147 194.312 336.866 193.248C336.304 192.807 335.851 192.343 335.441 191.957C335.087 191.632 334.752 191.285 334.437 190.921C334.136 190.637 333.878 190.31 333.67 189.95C333.746 189.873 334.901 191.196 337.114 192.928C338.407 193.933 339.775 194.833 341.206 195.619C342.965 196.563 344.8 197.349 346.691 197.968C348.595 198.554 350.546 198.968 352.521 199.204C354.135 199.381 355.759 199.433 357.38 199.358C360.155 199.204 361.85 198.784 361.872 198.873Z" fill="#263238"/>
<path d="M378.488 192.608C378.742 193.107 378.886 193.657 378.909 194.219C379.081 195.563 378.982 196.929 378.617 198.233C378.246 199.567 377.495 200.757 376.458 201.652C375.67 202.325 375.065 202.535 375.033 202.48C375 202.424 375.508 202.06 376.188 201.377C377.061 200.446 377.696 199.31 378.034 198.068C378.898 195.156 378.283 192.619 378.488 192.608Z" fill="#263238"/>
<path d="M375.562 196.49C375.797 197.625 375.703 198.804 375.293 199.885C374.883 200.966 374.173 201.902 373.252 202.578C373.133 202.457 374.137 201.365 374.763 199.678C375.39 197.99 375.4 196.501 375.562 196.49Z" fill="#263238"/>
<path d="M365.93 160.205C365.358 161.193 364.716 162.136 364.009 163.028C363.45 164.024 362.819 164.976 362.119 165.874C362.327 164.71 362.817 163.618 363.544 162.697C364.12 161.673 364.941 160.815 365.93 160.205Z" fill="#263238"/>
<path d="M328.983 133.492C328.16 132.998 327.364 132.461 326.597 131.881C322.757 129.304 318.399 127.642 313.845 127.017C312.892 126.947 311.944 126.818 311.006 126.631C311.962 126.497 312.932 126.497 313.889 126.631C318.566 127.039 323.046 128.744 326.845 131.562C327.642 132.1 328.361 132.75 328.983 133.492Z" fill="#263238"/>
<path d="M385.764 115.999C383.832 117.589 382.026 119.333 380.365 121.216C378.836 123.225 377.468 125.357 376.273 127.591C376.401 126.84 376.653 126.116 377.018 125.451C377.8 123.797 378.779 122.249 379.934 120.841C381.091 119.436 382.419 118.187 383.885 117.124C384.443 116.641 385.079 116.261 385.764 115.999Z" fill="#263238"/>
<path d="M363.544 106.911C363.642 107.07 363.722 107.24 363.781 107.418C363.992 107.918 364.162 108.434 364.289 108.963C364.744 110.928 364.744 112.975 364.289 114.94C363.617 117.875 362.079 120.527 359.883 122.54C357.112 124.938 353.581 126.224 349.95 126.157C346.316 126.17 342.775 124.982 339.855 122.771C337.529 120.957 335.641 118.621 334.338 115.944C333.46 114.152 332.841 112.238 332.502 110.264C332.403 109.732 332.338 109.194 332.308 108.654C332.278 108.464 332.278 108.27 332.308 108.08C332.308 108.08 332.427 108.852 332.729 110.22C333.149 112.138 333.813 113.992 334.705 115.735C336.022 118.331 337.893 120.592 340.179 122.352C342.992 124.48 346.396 125.639 349.896 125.661C353.396 125.727 356.803 124.505 359.495 122.22C361.616 120.281 363.12 117.738 363.814 114.918C364.294 113.015 364.36 111.027 364.008 109.095C363.803 107.639 363.479 106.933 363.544 106.911Z" fill="#263238"/>
<g opacity="0.3">
<path d="M367.323 162.156C367.323 161.605 367.237 160.954 366.762 160.679C366.611 160.601 366.445 160.561 366.276 160.561C366.107 160.561 365.941 160.601 365.79 160.679C365.488 160.845 365.221 161.07 365.002 161.34C363.733 162.69 362.751 164.293 362.119 166.05L367.41 165.576C367.377 164.462 367.356 163.292 367.323 162.156Z" fill="black"/>
</g>
<g opacity="0.3">
<path d="M384.891 150.786C384.359 147.693 383.032 144.8 381.047 142.403C383.336 150.036 382.569 154.348 381.284 159.576L381.565 158.848C383.044 155.793 385.29 153.874 384.891 150.786Z" fill="black"/>
</g>
<path d="M374.32 407.171L371.091 456.637L350.037 456.384L346.723 404.954L374.32 407.171Z" fill="#FFBE9D"/>
<path d="M371.686 450.13V451.563C371.686 451.563 395.439 461.313 395.666 465.902L348.494 465.637L349.228 449.611C356.257 452.975 363.61 453.394 371.686 450.13Z" fill="#FF725E"/>
<path d="M354.01 454.751C353.562 454.889 353.179 455.19 352.933 455.596C352.687 456.002 352.593 456.486 352.671 456.957C352.787 457.427 353.076 457.834 353.479 458.091C353.882 458.348 354.366 458.436 354.831 458.336C355.311 458.189 355.721 457.865 355.98 457.427C356.24 456.988 356.33 456.467 356.234 455.964C356.063 455.488 355.717 455.098 355.27 454.878C354.823 454.658 354.309 454.624 353.837 454.784" fill="white"/>
<path d="M348.494 465.637L348.667 461.788L393.841 463.465C393.841 463.465 395.936 464.413 395.688 465.913L348.494 465.637Z" fill="#263238"/>
<path d="M371.857 451.696C371.857 451.928 370.691 452.027 369.558 452.799C368.424 453.571 367.808 454.531 367.603 454.442C367.398 454.354 367.744 452.987 369.136 452.104C370.529 451.222 371.911 451.442 371.857 451.696Z" fill="#263238"/>
<path d="M376.791 453.814C376.845 454.046 375.841 454.432 375.053 455.425C374.265 456.417 374.038 457.465 373.801 457.454C373.563 457.443 373.434 456.108 374.438 454.906C375.442 453.704 376.781 453.649 376.791 453.814Z" fill="#263238"/>
<path d="M379.567 459.88C379.351 459.88 379.038 458.777 379.643 457.465C380.247 456.152 381.316 455.678 381.413 455.866C381.51 456.053 380.841 456.748 380.334 457.818C379.826 458.888 379.805 459.858 379.567 459.88Z" fill="#263238"/>
<path d="M370.475 45.4007C371.696 42.3125 370.216 38.5736 367.593 36.5773C364.828 34.7179 361.456 34.0481 358.21 34.7133C355.008 35.3992 351.908 36.5116 348.989 38.0221C347.632 36.624 345.922 35.6387 344.048 35.1763C342.175 34.7139 340.212 34.7925 338.38 35.4035C336.548 36.0144 334.918 37.1336 333.672 38.636C332.426 40.1384 331.614 41.965 331.326 43.9117C330.158 43.6116 328.933 43.6418 327.781 43.9991C326.629 44.3564 325.594 45.0274 324.788 45.94C323.981 46.8526 323.432 47.9724 323.201 49.1793C322.97 50.3861 323.065 51.6344 323.476 52.7903L338.074 58.0292L354.01 86.7052C356.365 88.7578 359.371 89.865 362.467 89.8202C365.562 89.7754 368.536 88.5816 370.834 86.4617C373.131 84.3418 374.595 81.4404 374.952 78.299C375.309 75.1576 374.536 71.9908 372.775 69.3893C373.668 68.5781 374.427 67.6246 375.021 66.5658C376.295 65.7965 377.406 64.7763 378.29 63.5646C379.174 62.3528 379.813 60.9736 380.171 59.5071C381.586 53.1211 376.749 46.1506 370.475 45.4007Z" fill="#263238"/>
<path d="M360.812 105.124C359.906 100.459 359.279 97.2605 359.29 97.2936C359.301 97.3267 367.928 93.8746 367.301 81.599C366.999 75.4888 364.721 65.8603 362.605 58.0516C360.705 51.0149 354.28 43.2613 347.489 45.5003L326.899 55.7575C324.837 56.4413 324.481 58.4266 324.967 60.5773V61.6802L332.967 95.4959L336.347 110.606C337.067 113.709 338.898 116.423 341.48 118.216C344.062 120.008 347.207 120.748 350.296 120.29C351.983 120.047 353.604 119.455 355.059 118.55C356.514 117.645 357.773 116.445 358.757 115.025C359.742 113.605 360.433 111.994 360.786 110.291C361.139 108.589 361.148 106.831 360.812 105.124Z" fill="#FFBE9D"/>
<path d="M362.53 66.2131C362.616 66.6044 362.553 67.0148 362.352 67.3596C362.151 67.7044 361.828 67.9572 361.45 68.066C361.259 68.1204 361.06 68.1349 360.863 68.1084C360.667 68.082 360.478 68.0153 360.307 67.9122C360.137 67.8092 359.989 67.672 359.871 67.5089C359.754 67.3457 359.67 67.1601 359.625 66.9631C359.539 66.5732 359.603 66.1643 359.804 65.8213C360.005 65.4783 360.328 65.2276 360.705 65.1212C360.895 65.065 361.094 65.0489 361.291 65.0739C361.487 65.099 361.676 65.1646 361.847 65.2667C362.018 65.3689 362.166 65.5055 362.284 65.6682C362.401 65.8309 362.485 66.0163 362.53 66.2131Z" fill="#263238"/>
<path d="M361.59 63.8635C361.439 64.1061 360.132 63.4995 358.534 63.8635C356.936 64.2275 355.922 65.2863 355.706 65.1208C355.49 64.9554 355.706 64.6466 356.148 64.1613C356.742 63.5201 357.515 63.0811 358.362 62.9039C359.197 62.72 360.068 62.8167 360.845 63.1797C361.45 63.4334 361.655 63.7642 361.59 63.8635Z" fill="#263238"/>
<path d="M346.852 69.8309C346.939 70.2208 346.875 70.6297 346.673 70.9727C346.472 71.3156 346.15 71.5663 345.773 71.6727C345.586 71.7282 345.391 71.7453 345.198 71.7231C345.005 71.7009 344.818 71.6398 344.648 71.5434C344.479 71.447 344.329 71.3171 344.209 71.1614C344.089 71.0056 344 70.8271 343.948 70.636C343.861 70.2447 343.925 69.8343 344.126 69.4895C344.327 69.1447 344.65 68.8919 345.028 68.7831C345.215 68.7278 345.411 68.7112 345.604 68.7341C345.798 68.757 345.985 68.819 346.155 68.9165C346.325 69.0141 346.474 69.1451 346.593 69.3021C346.713 69.4591 346.801 69.6388 346.852 69.8309Z" fill="#263238"/>
<path d="M346.065 67.757C345.924 67.9996 344.607 67.382 343.009 67.757C341.411 68.132 340.396 69.1687 340.18 69.0143C339.964 68.8599 340.18 68.5401 340.623 68.0437C341.22 67.4083 341.992 66.9736 342.836 66.7974C343.671 66.6162 344.54 66.7089 345.32 67.0621C345.892 67.3268 346.14 67.6246 346.065 67.757Z" fill="#263238"/>
<path d="M354.193 78.1243C354.985 77.6782 355.826 77.3302 356.698 77.0876C357.098 76.9552 357.475 76.7898 357.486 76.492C357.43 76.0533 357.245 75.6421 356.957 75.3118L355.089 72.3781C352.476 68.198 350.49 64.7348 350.652 64.6576C350.814 64.5804 353.07 67.8561 355.683 72.0362L357.508 74.992C357.866 75.4444 358.061 76.0093 358.059 76.5912C358.026 76.7499 357.96 76.8994 357.865 77.029C357.77 77.1586 357.648 77.2652 357.508 77.3412C357.297 77.4555 357.072 77.5407 356.838 77.5949C355.984 77.8936 355.094 78.0717 354.193 78.1243Z" fill="#263238"/>
<path d="M359.291 97.2931C353.829 98.5539 348.133 98.2408 342.836 96.3887C342.836 96.3887 348.494 103.933 359.906 100.326L359.291 97.2931Z" fill="#EB996E"/>
<path d="M346.334 65.4187C346.226 65.893 344.574 65.882 342.696 66.3562C340.817 66.8305 339.327 67.5474 339.025 67.1724C338.895 66.9959 339.111 66.5327 339.683 66.0694C340.444 65.4151 341.347 64.9574 342.318 64.7349C343.28 64.5018 344.282 64.5018 345.244 64.7349C346.01 64.8783 346.41 65.1981 346.334 65.4187Z" fill="#263238"/>
<path d="M360.975 58.658C360.716 59.0992 359.334 58.9889 357.736 59.3087C356.138 59.6286 354.875 60.1801 354.497 59.8602C354.325 59.6948 354.497 59.2757 354.962 58.7573C355.674 58.1448 356.536 57.7408 357.456 57.5882C358.36 57.4021 359.297 57.4707 360.166 57.7867C360.824 58.0955 361.083 58.4374 360.975 58.658Z" fill="#263238"/>
<path d="M331.985 47.8602C332.223 49.055 332.717 50.1814 333.43 51.1593C334.143 52.1373 335.059 52.9428 336.111 53.5187C337.163 54.0946 338.327 54.4267 339.519 54.4914C340.711 54.5561 341.902 54.3519 343.008 53.8932C344.714 53.1873 346.485 51.8638 348.212 52.5035C349.94 53.1432 350.653 55.6579 352.304 56.5954C354.734 57.9851 357.703 55.5807 360.413 55.8233C362.572 56.0108 364.203 57.6983 365.876 59.1321C367.55 60.5659 369.86 61.6468 371.75 60.61C371.317 58.7682 370.676 56.9841 369.839 55.2939C368.994 53.5924 367.598 52.2434 365.887 51.4778C364.937 51.0918 363.911 50.9594 363.004 50.4852C361.05 49.4705 360.175 47.1764 358.761 45.4448C357.832 44.3536 356.662 43.5043 355.348 42.9672C354.033 42.4302 352.613 42.2208 351.203 42.3566C348.871 42.5992 346.658 43.8014 344.304 43.7022C342.566 43.625 340.903 42.8309 339.165 42.864C335.785 42.864 333.248 45.9521 331.369 48.8308" fill="#263238"/>
<path d="M343.365 50.3856C341.811 50.2643 338.636 49.9334 337.589 48.8084C336.525 47.5928 335.167 46.684 333.651 46.173C332.135 45.662 330.515 45.5667 328.951 45.8967C327.4 46.3691 326.038 47.3378 325.066 48.6602C324.095 49.9825 323.564 51.5887 323.553 53.2422C321.664 53.7131 319.934 54.6965 318.547 56.0884C317.16 57.4803 316.166 59.2292 315.671 61.1502C315.169 63.1612 315.152 65.2668 315.622 67.286C316.092 69.3051 317.035 71.1774 318.37 72.7419C319.019 73.5704 319.611 74.4438 320.141 75.3558C319.409 76.2836 318.765 77.2808 318.219 78.3337C315.747 83.9145 322.452 86.0542 322.452 86.0542C322.452 89.8042 325.853 89.7821 328.023 89.7711C330.193 89.76 331.391 95.6828 333.087 95.4511L331.37 77.1757C331.621 77.2755 331.888 77.3279 332.158 77.3301C336.25 77.4073 335.181 69.4883 333.864 67.4038C335.083 65.8534 336.113 64.1571 336.93 62.3524C337.672 59.5934 337.723 56.6887 337.081 53.9039C338.453 53.7275 344.035 50.4297 343.365 50.3856Z" fill="#263238"/>
<path d="M331.91 78.1468C331.771 77.566 331.489 77.0309 331.093 76.5911C330.696 76.1514 330.197 75.8215 329.642 75.632C329.087 75.4426 328.494 75.3999 327.918 75.508C327.342 75.616 326.803 75.8711 326.35 76.2497C325.27 77.1982 324.698 78.7864 325.345 81.4445C327.095 88.5473 333.713 85.2937 333.67 85.0952C333.627 84.8967 332.666 81.0805 331.91 78.1468Z" fill="#FFBE9D"/>
<path d="M330.883 82.9445C330.883 82.9445 330.786 83.0658 330.603 83.2092C330.347 83.4091 330.026 83.5001 329.706 83.4629C328.908 83.3746 327.99 82.3599 327.644 81.0695C327.48 80.4666 327.446 79.8341 327.547 79.2166C327.558 78.9767 327.626 78.7431 327.744 78.5357C327.863 78.3283 328.028 78.1532 328.227 78.0254C328.358 77.9533 328.51 77.9303 328.656 77.9605C328.802 77.9907 328.933 78.0722 329.026 78.1909C329.167 78.3563 329.156 78.5107 329.199 78.5218C329.242 78.5328 329.318 78.3563 329.199 78.0806C329.116 77.9171 328.984 77.7854 328.821 77.7056C328.593 77.6112 328.337 77.6112 328.109 77.7056C327.837 77.8371 327.603 78.0365 327.428 78.2853C327.252 78.534 327.141 78.824 327.104 79.1284C326.964 79.8229 326.99 80.5418 327.18 81.2239C327.3 81.8644 327.604 82.4542 328.051 82.9193C328.499 83.3843 329.071 83.7039 329.696 83.8379C329.899 83.8463 330.101 83.808 330.288 83.726C330.475 83.6439 330.642 83.5201 330.775 83.3636C330.916 83.121 330.916 82.9555 330.883 82.9445Z" fill="#EB996E"/>
<path d="M369.192 68.2314C369.192 68.2314 369.829 67.7351 370.714 66.6322C371.936 65.043 372.685 63.129 372.873 61.1175C373.016 59.7444 372.884 58.3559 372.485 57.0367C372.024 55.5235 371.169 54.1664 370.012 53.1103C368.677 51.9188 367.059 51.1046 365.321 50.7487C363.582 50.3927 361.782 50.5072 360.101 51.0809C359.777 51.1912 359.474 51.3566 359.172 51.489C358.87 51.6213 358.6 51.8199 358.319 51.9853L357.887 52.228V51.7427C357.878 50.8883 357.567 50.066 357.013 49.4265C356.444 48.8059 355.747 48.3235 354.972 48.0148C353.506 47.3905 351.881 47.2668 350.34 47.6618C347.36 48.3567 344.834 49.7464 342.447 50.0331C340.576 50.3653 338.651 49.972 337.049 48.9302C336.626 48.633 336.26 48.2592 335.969 47.8273C335.797 47.5295 335.71 47.3641 335.732 47.353C336.123 47.8977 336.601 48.3712 337.146 48.7537C338.722 49.6833 340.574 50.0005 342.361 49.6471C343.604 49.4082 344.82 49.0385 345.989 48.5442C347.361 47.9838 348.768 47.5159 350.2 47.1435C350.998 46.9462 351.819 46.8608 352.64 46.8898C353.506 46.9365 354.358 47.1381 355.156 47.4854C355.981 47.8457 356.719 48.388 357.315 49.0736C357.953 49.8202 358.313 50.7735 358.33 51.7647L357.898 51.5221L358.794 50.9927C359.129 50.8603 359.442 50.6839 359.787 50.5625C361.56 49.9424 363.462 49.8127 365.299 50.1865C367.137 50.5604 368.845 51.4246 370.25 52.6912C371.464 53.8141 372.353 55.2563 372.819 56.8602C373.304 58.5602 373.369 60.3562 373.009 62.0881C372.65 63.8201 371.876 65.4342 370.757 66.7866C370.402 67.2011 369.999 67.5713 369.559 67.8895C369.45 68.0182 369.327 68.133 369.192 68.2314Z" fill="#455A64"/>
<path d="M367.788 43.2941C367.08 42.9265 366.324 42.6629 365.543 42.511C364.65 42.3863 363.741 42.4731 362.887 42.7647C361.78 43.1105 360.818 43.825 360.155 44.794L359.885 45.1801L359.723 44.7389C359.159 43.3831 358.252 42.2054 357.094 41.3272C355.937 40.4489 354.571 39.902 353.137 39.7426C350.885 39.6561 348.667 40.3137 346.81 41.6176C345.228 42.6709 343.546 43.5578 341.789 44.2646C340.578 44.7326 339.274 44.8916 337.989 44.7279C337.646 44.6633 337.31 44.5673 336.985 44.4411C336.769 44.3418 336.65 44.2867 336.661 44.2646C336.672 44.2426 337.147 44.408 338.021 44.4962C339.263 44.5755 340.507 44.3682 341.66 43.8896C343.367 43.1292 345.004 42.2138 346.551 41.1544C347.506 40.5483 348.519 40.0421 349.574 39.6434C350.734 39.2114 351.973 39.0494 353.202 39.1691C354.733 39.3399 356.19 39.9317 357.419 40.8814C358.647 41.8311 359.6 43.1033 360.177 44.5624H359.756C360.498 43.5259 361.558 42.7728 362.768 42.4228C363.687 42.1505 364.656 42.1014 365.597 42.2794C366.192 42.3949 366.763 42.6191 367.281 42.9411C367.466 43.0335 367.637 43.1523 367.788 43.2941Z" fill="#455A64"/>
<path d="M353.568 81.3892C353.316 81.1739 353.022 81.0153 352.706 80.9241C352.389 80.8329 352.058 80.811 351.732 80.8598C351.352 80.9428 350.993 81.1064 350.679 81.3401C350.365 81.5738 350.102 81.8724 349.908 82.2164C349.908 82.2164 349.854 82.2716 349.843 82.3047C349.694 82.5566 349.626 82.8496 349.649 83.1429C349.696 83.4624 349.819 83.7652 350.007 84.0248C350.195 84.2844 350.443 84.4928 350.728 84.6318C351.185 84.8682 351.701 84.9547 352.208 84.8797C352.714 84.8047 353.185 84.5718 353.557 84.2127C353.91 83.8317 354.108 83.3277 354.11 82.8032C354.112 82.2786 353.918 81.773 353.568 81.3892Z" fill="#FF725E"/>
<path d="M354.109 84.8192C354.022 84.8192 353.925 84.4883 353.633 84.0361C353.282 83.4299 352.758 82.9483 352.13 82.6564C351.503 82.3645 350.803 82.2763 350.124 82.4038C349.595 82.481 349.272 82.6354 349.239 82.5582C349.207 82.481 349.455 82.2163 350.038 82.0067C350.801 81.7559 351.628 81.803 352.359 82.1391C353.097 82.4746 353.681 83.0865 353.99 83.8486C354.217 84.4221 354.184 84.8081 354.109 84.8192Z" fill="#263238"/>
<path d="M332.071 86.187C332.071 86.187 332.384 86.7385 331.974 87.5767C331.742 88.0783 331.333 88.4721 330.83 88.6796C330.515 88.7946 330.179 88.8335 329.847 88.7933C329.516 88.7531 329.198 88.6349 328.919 88.448C328.634 88.2716 328.394 88.0304 328.216 87.7435C328.038 87.4565 327.928 87.1315 327.893 86.7936C327.86 86.2489 328.017 85.7098 328.336 85.2716C328.897 84.5437 329.523 84.5216 329.523 84.5878C329.523 84.654 329.048 84.8415 328.67 85.5032C328.451 85.8739 328.36 86.3087 328.411 86.7385C328.451 86.9902 328.545 87.23 328.685 87.4414C328.824 87.6527 329.007 87.8306 329.221 87.9627C329.432 88.1005 329.668 88.1913 329.916 88.2293C330.163 88.2673 330.416 88.2516 330.657 88.1833C331.056 88.0376 331.399 87.7675 331.639 87.4113C332.061 86.7275 331.985 86.187 332.071 86.187Z" fill="#FF725E"/>
<path d="M328.433 85.757C328.487 85.757 328.433 86.1319 327.926 86.3746C327.677 86.4804 327.403 86.5111 327.137 86.4631C326.871 86.4151 326.624 86.2904 326.426 86.1036C326.227 85.9169 326.085 85.676 326.016 85.4094C325.947 85.1427 325.954 84.8615 326.036 84.5989C326.142 84.3006 326.344 84.0479 326.609 83.882C327.051 83.6062 327.386 83.7165 327.375 83.7827C327.364 83.8489 327.116 83.9261 326.846 84.2018C326.713 84.3713 326.632 84.5771 326.614 84.7934C326.595 85.0096 326.639 85.2268 326.74 85.4176C326.842 85.6083 326.996 85.7643 327.184 85.8659C327.372 85.9675 327.585 86.0101 327.796 85.9886C328.163 85.9114 328.358 85.7128 328.433 85.757Z" fill="#FF725E"/>
<path d="M340.298 183.707C340.298 183.707 367.032 185.296 382.838 185.439C395.071 185.56 400.535 182.24 402.975 174.2C405.026 167.461 400.621 154.524 400.621 154.524C392.34 154.524 387.233 155.737 381.91 158.285L383.324 164.197L340.223 167.991L340.298 183.707Z" fill="#FFBE9D"/>
<path d="M392.308 170.505C391.148 168.966 389.794 167.59 388.28 166.414C386.656 165.399 384.906 164.612 383.076 164.075C383.652 163.991 384.24 164.044 384.793 164.23C386.151 164.558 387.439 165.137 388.593 165.939C389.75 166.744 390.749 167.761 391.541 168.939C392.146 169.844 392.372 170.472 392.308 170.505Z" fill="#EB996E"/>
<path d="M330.517 158.241C330.517 158.241 322.247 160.27 316.168 164.417L322.646 182.351C324.806 188.24 331.402 191.174 336.682 188.086C344.812 183.332 347.684 169.48 347.684 169.48L356.613 129.907L341.811 120.433L330.571 158.241" fill="#FFBE9D"/>
<path d="M341.756 120.433L342.36 107.418L339.046 94.1831C338.862 93.4551 338.776 92.5397 339.359 92.0985C339.648 91.8721 340.005 91.7549 340.369 91.767C340.733 91.779 341.082 91.9196 341.356 92.1647C342.252 93.1132 346.571 104.683 346.571 104.683C346.571 104.683 353.125 100.668 354.291 100.47C355.457 100.271 356.915 103.878 357.012 104.154C357.055 104.962 357.055 105.772 357.012 106.58C357.012 106.58 361.061 106.701 361.428 107.264C361.722 108.413 361.878 109.594 361.892 110.782C361.892 110.782 363.609 111.345 363.879 112.668C364.149 113.992 364.71 116.175 363.879 116.661C363.047 117.146 361.363 118.094 361.363 118.094C361.363 118.094 360.683 124.844 360.499 125.462C360.316 126.08 356.526 129.874 356.526 129.874L341.756 120.433Z" fill="#FFBE9D"/>
<path d="M327.979 188.351C327.979 188.351 328.378 188.593 329.22 188.869C330.452 189.264 331.754 189.37 333.031 189.178C335.083 188.879 337.004 187.974 338.56 186.575C340.615 184.671 342.351 182.435 343.699 179.958C344.493 178.501 345.161 176.977 345.696 175.403C346.258 173.67 346.723 171.906 347.089 170.12C347.931 166.403 348.849 162.399 349.821 158.142C351.764 149.638 353.945 140.131 356.299 129.885V129.808H356.353C357.098 129.058 357.843 128.297 358.588 127.502C358.955 127.105 359.322 126.708 359.668 126.3C359.84 126.091 360.024 125.881 360.164 125.672C360.274 125.464 360.336 125.234 360.348 124.999C360.639 122.793 360.866 120.51 361.104 118.205V118.061L361.233 117.995L363.295 116.815C363.447 116.716 363.684 116.606 363.781 116.517C363.884 116.422 363.953 116.294 363.976 116.153C364.026 115.788 364.026 115.416 363.976 115.05C363.871 114.242 363.709 113.442 363.49 112.657C363.123 111.971 362.506 111.46 361.773 111.234L361.589 111.168V110.981C361.589 110.341 361.525 109.679 361.449 109.028C361.42 108.703 361.373 108.379 361.309 108.058C361.284 107.917 361.24 107.779 361.179 107.65C361.179 107.573 361.179 107.65 361.114 107.584C361.056 107.552 360.994 107.526 360.931 107.506C359.632 107.217 358.308 107.066 356.979 107.054H356.698V106.767C356.698 106.084 356.698 105.323 356.698 104.562C356.654 104.302 356.566 104.052 356.439 103.823C356.331 103.558 356.202 103.304 356.072 103.04C355.819 102.529 355.523 102.042 355.187 101.584C355.034 101.37 354.848 101.184 354.636 101.032C354.558 100.965 354.462 100.922 354.36 100.911C354.258 100.899 354.155 100.918 354.064 100.966C353.542 101.17 353.033 101.41 352.542 101.683C350.533 102.786 348.568 103.889 346.646 105.08L346.366 105.256L346.247 104.948C345.232 102.334 344.217 99.7529 343.224 97.2272C342.727 95.9588 342.241 94.6905 341.745 93.4442C341.668 93.1649 341.516 92.9134 341.306 92.7184C341.096 92.5233 340.836 92.3926 340.557 92.3412C340.299 92.2538 340.019 92.2585 339.764 92.3547C339.509 92.4509 339.294 92.6328 339.153 92.8706C339.019 93.1072 338.962 93.3817 338.991 93.6537C338.991 93.8964 339.143 94.2713 339.207 94.5691C339.38 95.2088 339.542 95.8375 339.704 96.4662C340.028 97.7345 340.341 98.9808 340.665 100.216C341.298 102.701 341.921 105.128 342.533 107.495V107.573C342.317 112.102 342.112 116.44 341.917 120.587V120.565L332.081 153.256L329.307 162.355C328.983 163.381 328.734 164.186 328.562 164.748C328.389 165.311 328.281 165.553 328.281 165.553C328.281 165.553 328.335 165.267 328.486 164.726L329.166 162.311C329.792 160.182 330.689 157.105 331.822 153.179C334.154 145.282 337.469 134.01 341.475 120.422V120.477C341.662 116.345 341.853 112.006 342.047 107.462V107.54C341.432 105.168 340.795 102.742 340.157 100.271L339.186 96.5213C339.024 95.8926 338.862 95.253 338.689 94.6243C338.596 94.2941 338.521 93.959 338.462 93.6206C338.423 93.2378 338.502 92.8518 338.689 92.5177C338.889 92.1737 339.197 91.9092 339.564 91.7677C339.926 91.6594 340.31 91.6471 340.678 91.732C341.046 91.8169 341.387 91.9962 341.669 92.253C341.94 92.5127 342.141 92.8394 342.252 93.2015L343.731 96.9845C344.735 99.5213 345.74 102.102 346.765 104.705L346.366 104.562C348.298 103.393 350.242 102.223 352.293 101.132C352.812 100.855 353.345 100.608 353.891 100.393C354.062 100.32 354.248 100.294 354.431 100.315C354.616 100.343 354.793 100.41 354.949 100.514C355.209 100.704 355.439 100.935 355.63 101.198C355.991 101.68 356.305 102.197 356.569 102.742C356.709 103.018 356.839 103.282 356.958 103.558C357.111 103.85 357.214 104.167 357.26 104.495C357.26 105.279 357.26 106.006 357.26 106.701L356.99 106.404C358.378 106.413 359.761 106.576 361.114 106.889C361.207 106.922 361.298 106.963 361.384 107.01C361.503 107.076 361.6 107.176 361.665 107.297C361.749 107.476 361.81 107.665 361.849 107.859C361.913 108.212 361.957 108.543 362 108.885C362.065 109.558 362.108 110.22 362.14 110.881L361.946 110.617C362.387 110.749 362.798 110.972 363.152 111.271C363.507 111.571 363.798 111.941 364.008 112.359C364.245 113.197 364.418 114.053 364.526 114.918C364.601 115.36 364.601 115.811 364.526 116.253C364.479 116.52 364.342 116.762 364.138 116.936C363.96 117.058 363.777 117.168 363.587 117.267L361.535 118.359L361.676 118.15C361.428 120.455 361.201 122.716 360.898 124.955L360.834 125.385C360.809 125.559 360.738 125.723 360.629 125.859C360.47 126.101 360.293 126.329 360.1 126.543C359.732 126.962 359.365 127.37 359.02 127.767C358.275 128.561 357.53 129.322 356.774 130.072L356.85 129.94C354.474 140.175 352.272 149.682 350.296 158.186C349.313 162.432 348.374 166.436 347.51 170.142C347.141 171.941 346.665 173.717 346.085 175.458C345.529 177.047 344.843 178.586 344.034 180.057C342.654 182.566 340.878 184.825 338.775 186.741C337.174 188.149 335.203 189.046 333.107 189.321C331.802 189.5 330.475 189.364 329.231 188.924C328.915 188.806 328.608 188.662 328.313 188.494L327.979 188.351Z" fill="#EB996E"/>
<path d="M357.023 106.613C357.023 106.69 356.656 106.734 356.084 106.756C355.357 106.771 354.634 106.859 353.924 107.021C353.24 107.193 352.609 107.538 352.089 108.025C351.7 108.4 351.528 108.72 351.441 108.687C351.355 108.653 351.441 108.256 351.797 107.749C352.3 107.107 353 106.656 353.784 106.47C354.54 106.279 355.325 106.242 356.095 106.359C356.678 106.437 357.023 106.536 357.023 106.613Z" fill="#EB996E"/>
<path d="M353.893 106.734C353.752 106.679 353.741 106.337 353.893 105.973C354.044 105.609 354.26 105.356 354.4 105.411C354.54 105.466 354.562 105.808 354.4 106.172C354.238 106.536 354.001 106.79 353.893 106.734Z" fill="#EB996E"/>
<path d="M362.077 110.738C361.028 111.069 359.934 111.222 358.837 111.19C358.492 111.179 358.149 111.251 357.838 111.403C357.526 111.555 357.254 111.781 357.045 112.062C356.764 112.514 356.862 112.889 356.775 112.911C356.689 112.933 356.43 112.547 356.7 111.885C356.848 111.513 357.119 111.204 357.466 111.014C357.866 110.79 358.308 110.654 358.762 110.617C359.864 110.444 360.989 110.485 362.077 110.738Z" fill="#EB996E"/>
<path d="M361.364 114.709C361.515 114.709 361.601 115.525 361.558 116.528C361.515 117.532 361.353 118.326 361.202 118.326C361.051 118.326 360.953 117.499 360.997 116.495C361.04 115.492 361.202 114.698 361.364 114.709Z" fill="#EB996E"/>
<path d="M365.844 144.41L366.805 141.035C366.849 140.881 366.931 140.74 367.044 140.629C367.157 140.517 367.297 140.437 367.45 140.397C367.602 140.356 367.762 140.358 367.914 140.4C368.066 140.442 368.205 140.524 368.316 140.638L369.579 141.951L370.357 138.763C370.403 138.579 370.503 138.414 370.643 138.29C370.784 138.165 370.959 138.088 371.144 138.069C371.329 138.05 371.515 138.089 371.678 138.182C371.84 138.274 371.971 138.416 372.052 138.587L373.812 142.359L365.844 144.41Z" fill="white"/>
<path d="M373.833 143.804C372.626 144.4 371.343 144.823 370.022 145.061C368.744 145.487 367.414 145.725 366.07 145.767C368.556 144.747 371.169 144.086 373.833 143.804Z" fill="white"/>
<path d="M309.624 124.977C309.624 124.977 309.225 125.396 308.663 126.29C307.91 127.562 307.414 128.976 307.206 130.448C306.898 132.639 306.833 134.859 307.012 137.065C307.13 139.569 307.325 142.304 307.627 145.172C308.138 150.069 308.899 154.936 309.905 159.752C310.283 161.605 310.629 163.061 310.866 164.164C310.974 164.627 311.071 165.013 311.147 165.344C311.222 165.675 311.233 165.763 311.233 165.763C311.233 165.763 311.179 165.631 311.104 165.366C311.028 165.101 310.909 164.638 310.79 164.186C310.521 163.16 310.153 161.682 309.711 159.829C308.661 155.015 307.879 150.143 307.368 145.238C307.066 142.37 306.882 139.624 306.774 137.12C306.61 134.912 306.69 132.693 307.012 130.503C307.244 129.012 307.773 127.585 308.566 126.312C308.859 125.82 309.215 125.371 309.624 124.977Z" fill="white"/>
<path d="M332.353 109.955L332.104 110.088L331.392 110.44C330.776 110.738 329.88 111.179 328.811 111.786C326.025 113.374 323.318 115.104 320.703 116.97C317.615 119.176 314.883 121.183 312.886 122.639L310.521 124.348L309.863 124.801C309.789 124.861 309.709 124.912 309.625 124.955C309.687 124.881 309.759 124.818 309.841 124.767L310.467 124.282L312.789 122.506C314.764 121.018 317.485 118.944 320.573 116.782C323.194 114.908 325.919 113.192 328.736 111.643C329.815 111.058 330.722 110.639 331.359 110.363L332.083 110.054C332.299 109.977 332.299 109.944 332.353 109.955Z" fill="white"/>
<path d="M383.843 117.135C383.775 117.096 383.713 117.048 383.659 116.991L383.173 116.561C382.572 116.042 381.941 115.56 381.284 115.116C379.092 113.689 376.767 112.488 374.342 111.532C371.924 110.554 369.455 109.714 366.946 109.017C365.974 108.741 365.196 108.543 364.646 108.411L364.03 108.245C363.955 108.229 363.883 108.203 363.814 108.168H364.041L364.667 108.289C365.218 108.4 366.006 108.576 366.978 108.83C369.511 109.483 372 110.305 374.428 111.289C376.867 112.245 379.195 113.473 381.37 114.951C382.276 115.577 383.106 116.31 383.843 117.135Z" fill="white"/>
<path d="M332.654 201.321C332.508 201.295 332.366 201.247 332.233 201.178C331.858 201.01 331.497 200.811 331.153 200.583C330.572 200.226 330.064 199.757 329.661 199.2C329.257 198.644 328.964 198.012 328.8 197.34C328.503 195.984 328.651 194.565 329.221 193.303C329.385 192.911 329.595 192.541 329.847 192.2C330.02 191.969 330.138 191.858 330.149 191.869C329.855 192.34 329.591 192.83 329.361 193.336C328.859 194.576 328.742 195.942 329.026 197.252C329.336 198.544 330.105 199.673 331.186 200.417C332.082 201.079 332.676 201.277 332.654 201.321Z" fill="white"/>
<path d="M329.221 189.376C329.45 189.814 329.621 190.282 329.728 190.766C329.897 191.23 329.999 191.717 330.03 192.211C329.785 191.783 329.61 191.318 329.512 190.832C329.335 190.367 329.237 189.875 329.221 189.376Z" fill="white"/>
<path d="M343.818 436.664L376.749 436.498L376.155 320.195L375.842 201.884L331.218 201.299L323.196 216.74C319.914 222.948 317.821 229.738 317.031 236.747C316.491 242.108 320.421 259.534 321.782 263.945L334.058 303.717L343.818 436.664Z" fill="#263238"/>
<path d="M385.505 202.027L421.697 302.801C423.841 309.294 424.553 316.191 423.782 322.998C423.011 329.805 420.776 336.354 417.237 342.175L375.216 425.998L351.592 395.8L386.747 320.801L355.759 269.46L360.974 202.181L375.572 201.938L385.505 202.027Z" fill="#263238"/>
<path d="M372.84 235.788C372.84 235.788 372.84 235.964 372.84 236.306C372.84 236.648 372.894 237.177 372.937 237.828C373.013 239.185 373.11 241.137 373.239 243.662C373.488 248.769 373.833 256.103 374.319 265.158C374.805 274.214 375.215 285.011 375.755 297.033C376.014 303.033 376.295 309.331 376.576 315.86C376.781 319.169 376.694 322.478 376.727 325.786C376.759 329.095 376.727 332.58 376.727 336.043C376.727 363.76 376.813 388.852 376.846 407.039C376.846 416.105 376.846 423.45 376.846 428.557C376.846 431.083 376.846 433.046 376.846 434.413C376.846 435.053 376.846 435.516 376.846 435.935C376.846 436.355 376.846 436.454 376.846 436.454C376.846 436.454 376.846 436.277 376.846 435.935V434.413C376.846 433.046 376.846 431.105 376.781 428.557C376.781 423.45 376.694 416.116 376.63 407.05C376.554 388.863 376.457 363.771 376.349 336.055C376.349 332.591 376.349 329.172 376.349 325.797C376.349 322.422 376.414 319.092 376.209 315.871C375.939 309.353 375.669 303.055 375.42 297.055C374.924 285.055 374.47 274.258 374.103 265.17C373.736 256.081 373.466 248.78 373.261 243.674C373.175 241.159 373.11 239.196 373.067 237.828C373.067 237.177 373.067 236.725 373.067 236.306C373.067 235.887 372.84 235.788 372.84 235.788Z" fill="#455A64"/>
<path d="M372.01 204.012C372.136 204.367 372.212 204.738 372.237 205.115C372.355 205.821 372.485 206.847 372.636 208.126C372.917 210.674 373.219 214.214 373.392 218.13C373.565 222.045 373.575 225.596 373.521 228.166C373.521 229.446 373.446 230.493 373.392 231.21C373.403 231.583 373.359 231.954 373.262 232.313C373.126 230.936 373.079 229.55 373.122 228.166C373.122 225.596 373.003 222.067 372.83 218.152C372.658 214.236 372.42 210.718 372.237 208.225C372.083 206.826 372.007 205.42 372.01 204.012Z" fill="#455A64"/>
<path d="M364.753 206.285C364.807 206.362 364.192 206.649 364.019 207.542C363.971 207.784 363.984 208.035 364.058 208.271C364.131 208.507 364.263 208.719 364.44 208.888C364.654 209.09 364.92 209.226 365.207 209.279C365.494 209.332 365.79 209.299 366.06 209.185C366.318 209.049 366.534 208.842 366.683 208.586C366.832 208.331 366.908 208.038 366.902 207.74C366.892 207.494 366.82 207.254 366.694 207.043C366.567 206.833 366.39 206.659 366.178 206.538C365.739 206.321 365.249 206.233 364.764 206.285C364.764 206.285 364.872 206.141 365.153 206.053C365.558 205.952 365.984 205.995 366.362 206.174C366.663 206.302 366.924 206.514 367.115 206.784C367.305 207.055 367.419 207.375 367.442 207.707C367.485 208.118 367.4 208.532 367.201 208.891C367.001 209.25 366.696 209.536 366.329 209.709C365.962 209.882 365.551 209.933 365.154 209.855C364.757 209.777 364.394 209.573 364.116 209.274C363.887 209.041 363.724 208.748 363.646 208.427C363.568 208.106 363.577 207.769 363.674 207.454C363.782 207.041 364.026 206.679 364.365 206.428C364.581 206.274 364.742 206.252 364.753 206.285Z" fill="#455A64"/>
<path d="M347.479 204.288C347.638 204.636 347.737 205.009 347.771 205.391C347.944 206.381 347.977 207.391 347.868 208.391C347.713 209.879 347.292 211.326 346.626 212.659C345.822 214.318 344.632 215.749 343.16 216.828C341.687 217.907 339.979 218.6 338.183 218.847C336.746 219.066 335.281 219.01 333.864 218.681C332.905 218.469 331.982 218.116 331.122 217.633C330.797 217.476 330.498 217.268 330.236 217.016C331.43 217.564 332.674 217.989 333.95 218.284C335.486 218.61 337.071 218.608 338.606 218.277C340.141 217.945 341.591 217.293 342.867 216.36C344.142 215.427 345.214 214.235 346.015 212.857C346.817 211.48 347.33 209.948 347.522 208.358C347.649 207.004 347.635 205.639 347.479 204.288Z" fill="#455A64"/>
<path d="M389.846 213.95C389.142 214.033 388.428 213.946 387.762 213.696C386.131 213.172 384.667 212.212 383.519 210.917C382.361 209.628 381.567 208.042 381.219 206.329C381.049 205.63 381.049 204.899 381.219 204.2C381.317 204.2 381.327 205.005 381.651 206.241C382.089 207.837 382.885 209.307 383.975 210.534C385.066 211.761 386.422 212.712 387.935 213.31C389.058 213.763 389.857 213.84 389.846 213.95Z" fill="#455A64"/>
<path d="M402.706 322.588C402.164 323.218 401.517 323.745 400.794 324.143C400.036 324.634 399.21 325.006 398.344 325.246C397.253 325.541 396.103 325.51 395.029 325.158C393.143 324.431 391.527 323.12 390.408 321.408C389.894 320.764 389.469 320.052 389.145 319.29C389.727 319.858 390.255 320.482 390.721 321.154C391.867 322.707 393.416 323.903 395.191 324.606C396.097 324.853 397.043 324.909 397.971 324.771C398.899 324.632 399.79 324.302 400.589 323.801C401.271 323.356 401.978 322.951 402.706 322.588Z" fill="#455A64"/>
<path d="M394.455 329.018C393.179 327.668 392.04 326.19 391.054 324.606C389.919 323.132 388.928 321.547 388.096 319.875C389.38 321.22 390.524 322.698 391.508 324.286C392.652 325.752 393.64 327.338 394.455 329.018Z" fill="#455A64"/>
<path d="M339.133 239.681C338.982 239.736 338.604 239.107 338.27 238.258C337.935 237.409 337.795 236.692 337.935 236.626C338.075 236.56 338.464 237.199 338.788 238.049C339.112 238.898 339.274 239.681 339.133 239.681Z" fill="#FAFAFA"/>
<path d="M360.035 242.747C359.873 242.747 359.754 242.207 359.754 241.534C359.754 240.861 359.873 240.31 360.035 240.31C360.197 240.31 360.315 240.861 360.315 241.534C360.315 242.207 360.186 242.747 360.035 242.747Z" fill="#FAFAFA"/>
<path d="M351.441 254.35C351.29 254.35 351.117 253.688 351.063 252.839C351.009 251.99 351.063 251.306 351.236 251.295C351.409 251.284 351.57 251.957 351.624 252.806C351.678 253.655 351.592 254.339 351.441 254.35Z" fill="#FAFAFA"/>
<path d="M335.743 262.843C335.613 262.942 335.171 262.534 334.588 262.115C334.004 261.695 333.508 261.376 333.508 261.221C333.508 261.067 334.22 261.155 334.879 261.64C335.538 262.126 335.872 262.843 335.743 262.843Z" fill="#FAFAFA"/>
<path d="M363.414 273.662C363.285 273.574 363.414 273.1 363.781 272.559C364.148 272.019 364.483 271.71 364.613 271.798C364.742 271.886 364.613 272.372 364.246 272.901C363.878 273.43 363.544 273.75 363.414 273.662Z" fill="#FAFAFA"/>
<path d="M346.333 276.717C346.182 276.717 346.053 275.802 346.053 274.688C346.053 273.574 346.182 272.647 346.333 272.647C346.485 272.647 346.614 273.563 346.614 274.688C346.614 275.813 346.452 276.717 346.333 276.717Z" fill="#FAFAFA"/>
<path d="M340.742 289.092C340.656 289.214 340.094 288.96 339.49 288.508C338.885 288.055 338.41 287.592 338.55 287.46C338.691 287.328 339.209 287.592 339.813 288.044C340.418 288.497 340.839 288.96 340.742 289.092Z" fill="#FAFAFA"/>
<path d="M358.038 293.393C358.103 293.537 357.757 293.834 357.261 294.066C356.764 294.298 356.311 294.353 356.246 294.209C356.181 294.066 356.537 293.768 357.034 293.537C357.531 293.305 357.984 293.25 358.038 293.393Z" fill="#FAFAFA"/>
<path d="M346.335 313.577C346.205 313.643 345.644 312.794 345.093 311.669C344.543 310.544 344.208 309.573 344.348 309.463C344.489 309.353 345.05 310.246 345.59 311.371C346.13 312.496 346.432 313.455 346.335 313.577Z" fill="#FAFAFA"/>
<path d="M365.412 311.702C365.272 311.625 365.52 310.886 365.952 310.037C366.384 309.188 366.87 308.57 367.032 308.647C367.194 308.724 366.924 309.463 366.481 310.313C366.039 311.162 365.542 311.779 365.412 311.702Z" fill="#FAFAFA"/>
<path d="M357.044 328.786C356.882 328.786 356.903 327.893 356.731 326.856C356.558 325.819 356.299 324.992 356.45 324.915C356.601 324.838 357.119 325.621 357.292 326.768C357.465 327.915 357.195 328.819 357.044 328.786Z" fill="#FAFAFA"/>
<path d="M348.084 338.547C347.976 338.657 347.436 338.238 346.885 337.621C346.335 337.003 345.978 336.418 346.097 336.308C346.216 336.198 346.745 336.617 347.296 337.235C347.846 337.852 348.202 338.437 348.084 338.547Z" fill="#FAFAFA"/>
<path d="M369.828 342.254C369.72 342.143 370.12 341.548 370.724 340.919C371.329 340.29 371.89 339.882 372.009 339.993C372.128 340.103 371.718 340.709 371.124 341.327C370.53 341.945 369.947 342.364 369.828 342.254Z" fill="#FAFAFA"/>
<path d="M357.324 356.867C357.173 356.867 357.173 355.996 357.324 354.981C357.475 353.966 357.713 353.172 357.875 353.194C358.037 353.216 358.026 354.055 357.875 355.069C357.724 356.084 357.475 356.889 357.324 356.867Z" fill="#FAFAFA"/>
<path d="M348.914 363.959C348.773 364.036 348.298 363.462 347.834 362.679C347.37 361.896 347.132 361.201 347.262 361.124C347.391 361.047 347.866 361.61 348.341 362.393C348.816 363.176 349.043 363.871 348.914 363.959Z" fill="#FAFAFA"/>
<path d="M369.179 372.903C369.277 373.036 368.726 373.598 367.949 374.161C367.171 374.723 366.491 375.076 366.394 374.944C366.297 374.811 366.858 374.249 367.625 373.686C368.391 373.124 369.093 372.782 369.179 372.903Z" fill="#FAFAFA"/>
<path d="M352.293 384.517C352.142 384.462 352.293 383.579 352.434 382.477C352.574 381.374 352.488 380.469 352.65 380.447C352.812 380.425 353.092 381.352 352.984 382.532C352.876 383.712 352.434 384.583 352.293 384.517Z" fill="#FAFAFA"/>
<path d="M359.042 401.194C358.912 401.293 358.459 400.918 358.016 400.355C357.573 399.793 357.325 399.252 357.444 399.153C357.562 399.054 358.016 399.429 358.459 399.991C358.901 400.554 359.16 401.094 359.042 401.194Z" fill="#FAFAFA"/>
<path d="M351.669 412.377C351.539 412.465 350.945 411.814 350.341 410.91C349.736 410.006 349.358 409.211 349.477 409.123C349.596 409.035 350.2 409.686 350.805 410.59C351.41 411.495 351.798 412.289 351.669 412.377Z" fill="#FAFAFA"/>
<path d="M371.976 398.337C371.836 398.282 371.847 397.874 371.976 397.432C372.106 396.991 372.397 396.66 372.549 396.715C372.7 396.771 372.678 397.179 372.549 397.631C372.419 398.083 372.127 398.403 371.976 398.337Z" fill="#FAFAFA"/>
<path d="M363.015 424.972C362.875 424.895 363.145 424.112 363.361 423.13C363.577 422.149 363.652 421.322 363.814 421.311C363.976 421.3 364.138 422.193 363.911 423.252C363.685 424.311 363.145 425.061 363.015 424.972Z" fill="#FAFAFA"/>
<path d="M368.847 254.526C368.706 254.593 368.361 254.151 368.08 253.534C367.799 252.916 367.68 252.365 367.821 252.299C367.961 252.232 368.307 252.674 368.587 253.291C368.868 253.909 369.009 254.46 368.847 254.526Z" fill="#FAFAFA"/>
<path d="M353.892 220.181C353.978 220.313 353.223 220.931 352.413 221.813C351.603 222.696 351.052 223.512 350.912 223.435C350.772 223.358 351.139 222.332 351.992 221.427C352.845 220.523 353.784 220.038 353.892 220.181Z" fill="#FAFAFA"/>
<path d="M367.204 219.828C367.042 219.828 366.793 219.199 366.416 218.449C366.038 217.699 365.692 217.082 365.811 216.972C365.93 216.861 366.513 217.347 366.891 218.185C367.268 219.023 367.344 219.74 367.204 219.828Z" fill="#FAFAFA"/>
<path d="M325.636 230.979C325.496 230.913 325.636 230.185 325.971 229.347C326.306 228.509 326.673 227.858 326.824 227.924C326.975 227.99 326.824 228.707 326.489 229.556C326.154 230.406 325.82 231.034 325.636 230.979Z" fill="#FAFAFA"/>
<path d="M326.986 247.633C326.878 247.755 326.262 247.402 325.604 246.839C324.945 246.277 324.524 245.736 324.589 245.604C324.653 245.472 325.312 245.835 325.971 246.398C326.629 246.96 327.083 247.512 326.986 247.633Z" fill="#FAFAFA"/>
<path d="M354.26 206.957C354.12 206.957 353.817 206.604 353.601 206.042C353.385 205.479 353.321 204.939 353.461 204.939C353.601 204.939 353.904 205.292 354.12 205.854C354.336 206.417 354.4 206.902 354.26 206.957Z" fill="#FAFAFA"/>
<path d="M380.377 215.097C380.226 215.097 380.237 214.402 380.377 213.619C380.517 212.836 380.798 212.218 380.949 212.251C381.1 212.284 381.09 212.957 380.949 213.74C380.809 214.523 380.528 215.13 380.377 215.097Z" fill="#FAFAFA"/>
<path d="M386.51 227.703C386.37 227.637 386.564 226.821 386.953 225.862C387.342 224.902 387.763 224.185 387.903 224.24C388.044 224.295 387.903 225.123 387.471 226.082C387.039 227.042 386.662 227.759 386.51 227.703Z" fill="#FAFAFA"/>
<path d="M382.137 237.872C381.997 237.938 381.478 237.177 380.982 236.173C380.485 235.17 380.204 234.276 380.345 234.21C380.485 234.144 380.993 234.905 381.489 235.909C381.986 236.912 382.277 237.795 382.137 237.872Z" fill="#FAFAFA"/>
<path d="M391.488 248.041C391.347 247.986 391.488 247.347 391.725 246.619C391.963 245.891 392.341 245.339 392.492 245.394C392.643 245.45 392.492 246.089 392.254 246.817C392.017 247.545 391.682 248.097 391.488 248.041Z" fill="#FAFAFA"/>
<path d="M383.131 258.001C383.001 258.089 382.666 257.791 382.396 257.35C382.127 256.909 381.997 256.467 382.137 256.379C382.278 256.291 382.591 256.589 382.872 257.041C383.152 257.493 383.26 257.923 383.131 258.001Z" fill="#FAFAFA"/>
<path d="M384.911 278.559C384.803 278.658 384.123 278.118 383.41 277.324C382.697 276.53 382.212 275.813 382.33 275.703C382.449 275.592 383.119 276.144 383.831 276.938C384.544 277.732 385.03 278.449 384.911 278.559Z" fill="#FAFAFA"/>
<path d="M395.871 266.747C395.753 266.846 395.159 266.295 394.554 265.501C393.949 264.707 393.561 264.001 393.68 263.901C393.798 263.802 394.392 264.365 394.997 265.148C395.601 265.931 396.001 266.659 395.871 266.747Z" fill="#FAFAFA"/>
<path d="M401.885 283.037C401.745 282.971 401.993 282.144 402.436 281.195C402.878 280.247 403.343 279.519 403.515 279.585C403.688 279.651 403.418 280.489 402.975 281.438C402.533 282.386 402.025 283.114 401.885 283.037Z" fill="#FAFAFA"/>
<path d="M389.102 296.449C388.961 296.526 388.465 295.919 387.774 295.268C387.083 294.618 386.446 294.166 386.51 294C386.575 293.835 387.396 294.132 388.152 294.849C388.907 295.566 389.231 296.371 389.102 296.449Z" fill="#FAFAFA"/>
<path d="M389.9 310.268C389.9 310.423 389.36 310.555 388.701 310.555C388.043 310.555 387.514 310.423 387.514 310.268C387.514 310.114 388.043 309.981 388.701 309.981C389.36 309.981 389.9 310.114 389.9 310.268Z" fill="#FAFAFA"/>
<path d="M403.04 306.408C402.899 306.331 403.18 305.636 403.385 304.776C403.59 303.915 403.677 303.165 403.839 303.154C404.001 303.143 404.173 303.949 403.936 304.908C403.698 305.868 403.159 306.496 403.04 306.408Z" fill="#FAFAFA"/>
<path d="M416.094 311.052C415.954 311.107 415.554 310.324 415.209 309.32C414.863 308.316 414.701 307.456 414.841 307.412C414.982 307.368 415.392 308.129 415.738 309.133C416.083 310.136 416.245 310.996 416.094 311.052Z" fill="#FAFAFA"/>
<path d="M414.008 330.021C413.879 329.944 414.213 329.018 414.753 327.948C415.293 326.878 415.833 326.073 415.995 326.15C416.157 326.227 415.801 327.154 415.25 328.213C414.699 329.271 414.149 330.121 414.008 330.021Z" fill="#FAFAFA"/>
<path d="M402.101 341.15C401.961 341.205 401.518 340.444 401.108 339.44C400.697 338.437 400.492 337.576 400.643 337.51C400.795 337.444 401.226 338.216 401.626 339.22C402.025 340.223 402.241 341.15 402.101 341.15Z" fill="#FAFAFA"/>
<path d="M388.906 345.463C388.906 345.617 388.452 345.749 387.902 345.749C387.351 345.749 386.908 345.617 386.908 345.463C386.908 345.308 387.362 345.176 387.902 345.176C388.441 345.176 388.906 345.308 388.906 345.463Z" fill="#FAFAFA"/>
<path d="M396.465 363.208C396.325 363.208 396.022 362.602 395.795 361.764C395.569 360.925 395.526 360.197 395.677 360.164C395.828 360.131 396.119 360.771 396.346 361.609C396.573 362.447 396.616 363.12 396.465 363.208Z" fill="#FAFAFA"/>
<path d="M386.908 357.253C386.779 357.175 386.908 356.657 387.265 356.094C387.621 355.532 387.977 355.146 388.107 355.223C388.237 355.3 388.107 355.83 387.751 356.392C387.394 356.955 387.049 357.341 386.908 357.253Z" fill="#FAFAFA"/>
<path d="M386.714 376.786C386.563 376.786 386.347 376.047 386.239 375.087C386.131 374.128 386.164 373.345 386.315 373.323C386.466 373.301 386.682 374.062 386.79 375.021C386.898 375.981 386.866 376.764 386.714 376.786Z" fill="#FAFAFA"/>
</svg>
