<svg width="56" height="56" viewBox="0 0 56 56" fill="none" xmlns="http://www.w3.org/2000/svg">
<g clip-path="url(#clip0_490_99)">
<path d="M28 0C22.4621 0 17.0486 1.64217 12.444 4.71885C7.83947 7.79553 4.25064 12.1685 2.13139 17.2849C0.012132 22.4012 -0.542361 28.0311 0.538025 33.4625C1.61841 38.894 4.28515 43.8831 8.20102 47.799C12.1169 51.7149 17.106 54.3816 22.5375 55.462C27.969 56.5424 33.5988 55.9879 38.7151 53.8686C43.8315 51.7494 48.2045 48.1605 51.2812 43.556C54.3578 38.9514 56 33.5379 56 28C55.992 20.5764 53.0394 13.4592 47.7901 8.20988C42.5409 2.9606 35.4236 0.00802919 28 0V0ZM28 51.3333C23.3851 51.3333 18.8739 49.9649 15.0367 47.401C11.1996 44.8371 8.20887 41.1929 6.44282 36.9293C4.67678 32.6657 4.2147 27.9741 5.11502 23.4479C6.01534 18.9217 8.23763 14.7641 11.5009 11.5008C14.7641 8.23762 18.9217 6.01533 23.4479 5.11501C27.9741 4.21469 32.6657 4.67677 36.9293 6.44281C41.1929 8.20886 44.8371 11.1995 47.401 15.0367C49.9649 18.8738 51.3333 23.3851 51.3333 28C51.3266 34.1863 48.866 40.1173 44.4917 44.4917C40.1173 48.866 34.1863 51.3265 28 51.3333V51.3333Z" fill="white"/>
<path d="M27.9997 14C27.3809 14 26.7874 14.2458 26.3498 14.6834C25.9122 15.121 25.6664 15.7145 25.6664 16.3333V26.425L17.8007 31.353C17.2747 31.6816 16.9008 32.2057 16.7612 32.81C16.6216 33.4143 16.7278 34.0493 17.0564 34.5753C17.385 35.1013 17.9091 35.4752 18.5134 35.6148C19.1177 35.7544 19.7527 35.6482 20.2787 35.3196L29.2387 29.7196C29.5772 29.5075 29.8556 29.2121 30.0473 28.8615C30.2389 28.511 30.3373 28.1171 30.333 27.7176V16.3333C30.333 15.7145 30.0872 15.121 29.6496 14.6834C29.212 14.2458 28.6185 14 27.9997 14Z" fill="white"/>
</g>
<defs>
<clipPath id="clip0_490_99">
<rect width="56" height="56" fill="white"/>
</clipPath>
</defs>
</svg>
