<svg width="38" height="51" viewBox="0 0 38 51" fill="none" xmlns="http://www.w3.org/2000/svg">
<path d="M28.375 24.4688V27.2031C28.375 27.8867 27.7891 28.375 27.2031 28.375H10.7969C10.1133 28.375 9.625 27.8867 9.625 27.2031V24.4688C9.625 23.8828 10.1133 23.2969 10.7969 23.2969H27.2031C27.7891 23.2969 28.375 23.8828 28.375 24.4688ZM27.2031 31.5C27.7891 31.5 28.375 32.0859 28.375 32.6719V35.4062C28.375 36.0898 27.7891 36.5781 27.2031 36.5781H10.7969C10.1133 36.5781 9.625 36.0898 9.625 35.4062V32.6719C9.625 32.0859 10.1133 31.5 10.7969 31.5H27.2031ZM37.75 13.1406V45.5625C37.75 48.1992 35.6016 50.25 33.0625 50.25H4.9375C2.30078 50.25 0.25 48.1992 0.25 45.5625V4.9375C0.25 2.39844 2.30078 0.25 4.9375 0.25H24.8594C26.0312 0.25 27.3008 0.835938 28.1797 1.71484L36.2852 9.82031C37.1641 10.6992 37.75 11.9688 37.75 13.1406ZM25.25 5.32812V12.75H32.6719L25.25 5.32812ZM33.0625 45.5625V17.4375H22.9062C21.5391 17.4375 20.5625 16.4609 20.5625 15.0938V4.9375H4.9375V45.5625H33.0625Z" fill="white"/>
</svg>
