<svg width="55" height="56" viewBox="0 0 55 56" fill="none" xmlns="http://www.w3.org/2000/svg">
<path d="M36.75 17.5H17.3906C19.0312 7.76562 22.75 0.875 27.125 0.875C31.3906 0.875 35.2188 7.76562 36.75 17.5ZM16.625 28C16.625 25.5938 16.7344 23.2969 16.9531 21H37.1875C37.4062 23.2969 37.5156 25.5938 37.5156 28C37.5156 30.5156 37.4062 32.8125 37.1875 35H16.9531C16.7344 32.8125 16.625 30.5156 16.625 28ZM52.0625 17.5H40.25C39.2656 11.375 37.5156 5.79688 34.7812 2.07812C42.6562 4.375 49 10.1719 52.0625 17.5ZM19.3594 2.07812C16.625 5.79688 14.875 11.375 13.8906 17.5H2.07812C5.14062 10.1719 11.4844 4.375 19.3594 2.07812ZM53.2656 21C53.8125 23.2969 54.1406 25.5938 54.1406 28C54.1406 30.5156 53.8125 32.8125 53.2656 35H40.6875C40.9062 32.7031 41.125 30.4062 41.125 28C41.125 25.7031 40.9062 23.2969 40.6875 21H53.2656ZM13.125 28C13.125 30.4062 13.2344 32.7031 13.4531 35H0.875C0.328125 32.8125 0 30.5156 0 28C0 25.5938 0.328125 23.2969 0.875 21H13.4531C13.2344 23.2969 13.125 25.7031 13.125 28ZM17.3906 38.5H36.75C35.2188 48.3438 31.3906 55.125 27.125 55.125C22.75 55.125 19.0312 48.3438 17.3906 38.5ZM34.7812 54.0312C37.5156 50.3125 39.375 44.7344 40.25 38.5H52.0625C49 45.9375 42.6562 51.7344 34.7812 54.0312ZM2.07812 38.5H13.8906C14.875 44.7344 16.625 50.3125 19.3594 54.0312C11.4844 51.7344 5.14062 45.9375 2.07812 38.5Z" fill="#3698D2"/>
</svg>
