<svg width="56" height="56" viewBox="0 0 56 56" fill="none" xmlns="http://www.w3.org/2000/svg">
<path d="M45.43 17.9922L41.265 14.2734C40.3432 13.4577 39.0979 13 37.8 13H17.955C16.66 13 15.4088 13.4609 14.49 14.2734L10.325 17.9922H0V37.9688H5.6C7.14 37.9688 8.3825 36.8594 8.39125 35.4922H9.1875L16.59 41.4609C19.2938 43.4219 23.0475 43.4688 25.83 41.7578C26.9238 42.6016 28.105 43 29.4262 43C31.0187 43 32.515 42.4219 33.6962 41.125C35.63 41.8047 37.9137 41.3281 39.2962 39.8125L41.5887 37.2891C42.0787 36.75 42.385 36.1328 42.5425 35.4922H47.6087C47.6175 36.8594 48.8687 37.9688 50.4 37.9688H56V17.9922H45.43ZM4.2 35.4688C3.43 35.4688 2.8 34.9063 2.8 34.2188C2.8 33.5313 3.43 32.9688 4.2 32.9688C4.97 32.9688 5.6 33.5313 5.6 34.2188C5.6 34.9141 4.97 35.4688 4.2 35.4688ZM38.325 34.9297L36.0412 37.4453C35.7962 37.7109 35.3587 37.7578 35.0525 37.5391L32.9613 36.0234L30.3363 38.875C29.8113 39.4453 29.0238 39.25 28.7613 39.0625L25.5412 36.6016L24.1762 38.1016C22.96 39.4375 20.7462 39.6406 19.3375 38.6172L10.8237 31.7422H8.4V21.7344H12.0662L17.465 16.9219C17.64 16.8594 17.7887 16.8047 17.9637 16.7422H22.925L19.5387 19.5156C16.9663 21.6172 16.8175 25.1641 19.1537 27.4297C20.4487 28.6953 24.5087 30.6484 28.035 27.7734L28.7525 27.1875L38.22 34.0469C38.5175 34.2656 38.5612 34.6641 38.325 34.9297V34.9297ZM47.6 31.7422H41.545C41.3437 31.5234 41.1162 31.3203 40.8712 31.1406L31.885 24.625L32.9787 23.7344C33.5475 23.2656 33.5912 22.4766 33.0662 21.9688L32.1125 21.0547C31.5875 20.5469 30.7037 20.5156 30.135 20.9766L25.305 24.9297C24.4738 25.6094 23.0563 25.6641 22.2775 24.9297C21.4638 24.1562 21.5337 22.9688 22.3825 22.2813L28.1225 17.5859C28.77 17.0547 29.61 16.7656 30.485 16.7656L37.8087 16.75C37.9925 16.75 38.1675 16.8125 38.29 16.9297L43.6887 21.7422H47.6V31.7422V31.7422ZM51.8 35.4688C51.03 35.4688 50.4 34.9063 50.4 34.2188C50.4 33.5313 51.03 32.9688 51.8 32.9688C52.57 32.9688 53.2 33.5313 53.2 34.2188C53.2 34.9141 52.57 35.4688 51.8 35.4688Z" fill="#3698D2"/>
</svg>
