<svg width="15" height="15" viewBox="0 0 15 15" fill="none" xmlns="http://www.w3.org/2000/svg">
<path d="M7.94189 4.08105C9.91064 4.08105 11.5356 5.70605 11.5356 7.6748C11.5356 9.6748 9.91064 11.2686 7.94189 11.2686C5.94189 11.2686 4.34814 9.6748 4.34814 7.6748C4.34814 5.70605 5.94189 4.08105 7.94189 4.08105ZM7.94189 10.0186C9.22314 10.0186 10.2544 8.9873 10.2544 7.6748C10.2544 6.39355 9.22314 5.3623 7.94189 5.3623C6.62939 5.3623 5.59814 6.39355 5.59814 7.6748C5.59814 8.9873 6.66064 10.0186 7.94189 10.0186ZM12.5044 3.95605C12.5044 4.4248 12.1294 4.7998 11.6606 4.7998C11.1919 4.7998 10.8169 4.4248 10.8169 3.95605C10.8169 3.4873 11.1919 3.1123 11.6606 3.1123C12.1294 3.1123 12.5044 3.4873 12.5044 3.95605ZM14.8794 4.7998C14.9419 5.95605 14.9419 9.4248 14.8794 10.5811C14.8169 11.7061 14.5669 12.6748 13.7544 13.5186C12.9419 14.3311 11.9419 14.5811 10.8169 14.6436C9.66064 14.7061 6.19189 14.7061 5.03564 14.6436C3.91064 14.5811 2.94189 14.3311 2.09814 13.5186C1.28564 12.6748 1.03564 11.7061 0.973145 10.5811C0.910645 9.4248 0.910645 5.95605 0.973145 4.7998C1.03564 3.6748 1.28564 2.6748 2.09814 1.8623C2.94189 1.0498 3.91064 0.799805 5.03564 0.737305C6.19189 0.674805 9.66064 0.674805 10.8169 0.737305C11.9419 0.799805 12.9419 1.0498 13.7544 1.8623C14.5669 2.6748 14.8169 3.6748 14.8794 4.7998ZM13.3794 11.7998C13.7544 10.8936 13.6606 8.70605 13.6606 7.6748C13.6606 6.6748 13.7544 4.4873 13.3794 3.5498C13.1294 2.95605 12.6606 2.45605 12.0669 2.2373C11.1294 1.8623 8.94189 1.95605 7.94189 1.95605C6.91064 1.95605 4.72314 1.8623 3.81689 2.2373C3.19189 2.4873 2.72314 2.95605 2.47314 3.5498C2.09814 4.4873 2.19189 6.6748 2.19189 7.6748C2.19189 8.70605 2.09814 10.8936 2.47314 11.7998C2.72314 12.4248 3.19189 12.8936 3.81689 13.1436C4.72314 13.5186 6.91064 13.4248 7.94189 13.4248C8.94189 13.4248 11.1294 13.5186 12.0669 13.1436C12.6606 12.8936 13.1606 12.4248 13.3794 11.7998Z" fill="#272C49"/>
</svg>
