<svg width="56" height="56" viewBox="0 0 56 56" fill="none" xmlns="http://www.w3.org/2000/svg">
<path d="M28 19.6C26.4693 19.6 25.06 19.9733 23.772 20.72C22.484 21.4667 21.4667 22.484 20.72 23.772C19.9733 25.06 19.6 26.4693 19.6 28C19.6 29.5307 19.9733 30.94 20.72 32.228C21.4667 33.516 22.484 34.5333 23.772 35.28C25.06 36.0267 26.4693 36.4 28 36.4C29.5307 36.4 30.94 36.0267 32.228 35.28C33.516 34.5333 34.5333 33.516 35.28 32.228C36.0267 30.94 36.4 29.5307 36.4 28C36.4 26.4693 36.0267 25.06 35.28 23.772C34.5333 22.484 33.516 21.4667 32.228 20.72C30.94 19.9733 29.5307 19.6 28 19.6ZM28 14C30.5387 14 32.8813 14.6253 35.028 15.876C37.1747 17.1267 38.8733 18.8253 40.124 20.972C41.3747 23.1187 42 25.4613 42 28C42 30.5387 41.3747 32.8813 40.124 35.028C38.8733 37.1747 37.1747 38.8733 35.028 40.124C32.8813 41.3747 30.5387 42 28 42C25.4613 42 23.1187 41.3747 20.972 40.124C18.8253 38.8733 17.1267 37.1747 15.876 35.028C14.6253 32.8813 14 30.5387 14 28C14 25.4613 14.6253 23.1187 15.876 20.972C17.1267 18.8253 18.8253 17.1267 20.972 15.876C23.1187 14.6253 25.4613 14 28 14ZM46.2 13.272C46.2 14.2427 45.8547 15.0733 45.164 15.764C44.4733 16.4547 43.652 16.8 42.7 16.8C41.748 16.8 40.9267 16.4547 40.236 15.764C39.5453 15.0733 39.2 14.252 39.2 13.3C39.2 12.348 39.5453 11.5267 40.236 10.836C40.9267 10.1453 41.748 9.8 42.7 9.8C43.652 9.8 44.4733 10.1453 45.164 10.836C45.8547 11.5267 46.2 12.3387 46.2 13.272ZM28 5.6C24.5653 5.6 22.232 5.60933 21 5.628C19.768 5.64667 18.3493 5.69333 16.744 5.768C14.728 5.84267 13.048 6.14133 11.704 6.664C10.5467 7.112 9.52933 7.77467 8.652 8.652C7.77467 9.52933 7.112 10.5467 6.664 11.704C6.14133 13.048 5.84267 14.728 5.768 16.744C5.69333 18.2747 5.64667 19.6467 5.628 20.86C5.60933 22.0733 5.6 24.4533 5.6 28C5.6 31.4347 5.60933 33.768 5.628 35C5.64667 36.232 5.69333 37.6507 5.768 39.256C5.84267 41.272 6.14133 42.952 6.664 44.296C7.112 45.4533 7.77467 46.4707 8.652 47.348C9.52933 48.2253 10.5467 48.8693 11.704 49.28C13.048 49.84 14.728 50.1573 16.744 50.232C18.2747 50.3067 19.6467 50.3533 20.86 50.372C22.0733 50.3907 24.4533 50.4 28 50.4C31.4347 50.4 33.768 50.3907 35 50.372C36.232 50.3533 37.6507 50.3067 39.256 50.232C41.272 50.1573 42.952 49.8587 44.296 49.336C45.4533 48.888 46.4707 48.2253 47.348 47.348C48.2253 46.4707 48.8693 45.4533 49.28 44.296C49.84 42.952 50.1573 41.272 50.232 39.256C50.3067 37.7253 50.3533 36.3533 50.372 35.14C50.3907 33.9267 50.4 31.5467 50.4 28C50.4 24.5653 50.3907 22.232 50.372 21C50.3533 19.768 50.3067 18.3493 50.232 16.744C50.1573 14.728 49.8587 13.048 49.336 11.704C48.888 10.5467 48.2253 9.52933 47.348 8.652C46.4707 7.77467 45.4533 7.112 44.296 6.664C42.952 6.14133 41.272 5.84267 39.256 5.768C37.7253 5.69333 36.3533 5.64667 35.14 5.628C33.9267 5.60933 31.5467 5.6 28 5.6ZM28 -1.72853e-06C31.6587 -1.72853e-06 34.16 0.0186649 35.504 0.0559983C36.624 0.0559983 37.968 0.0933316 39.536 0.167998C42.1493 0.279998 44.408 0.709332 46.312 1.456C48.216 2.20266 49.8773 3.28533 51.296 4.704C52.7147 6.12267 53.7973 7.784 54.544 9.688C55.2907 11.592 55.72 13.8507 55.832 16.464C55.9067 18.0693 55.944 19.4133 55.944 20.496C55.9813 21.9147 56 24.4347 56 28.056C56 31.6773 55.9813 34.16 55.944 35.504C55.944 36.624 55.9067 37.968 55.832 39.536C55.72 42.1493 55.2907 44.408 54.544 46.312C53.7973 48.216 52.7147 49.8773 51.296 51.296C49.8773 52.7147 48.216 53.7973 46.312 54.544C44.408 55.2907 42.1493 55.72 39.536 55.832C37.9307 55.9067 36.5867 55.944 35.504 55.944C34.0853 55.9813 31.5653 56 27.944 56C24.3227 56 21.84 55.9813 20.496 55.944C19.376 55.944 18.032 55.9067 16.464 55.832C13.8507 55.72 11.592 55.2907 9.688 54.544C7.784 53.7973 6.12267 52.7147 4.704 51.296C3.28533 49.8773 2.20267 48.216 1.456 46.312C0.709333 44.408 0.28 42.1493 0.168 39.536C0.0933333 37.9307 0.056 36.5867 0.056 35.504C0.0186667 34.0853 0 31.5653 0 27.944C0 24.3227 0.0186667 21.84 0.056 20.496C0.056 19.376 0.0933333 18.032 0.168 16.464C0.28 13.8507 0.709333 11.592 1.456 9.688C2.20267 7.784 3.28533 6.12267 4.704 4.704C6.12267 3.28533 7.784 2.20266 9.688 1.456C11.592 0.709332 13.8507 0.279998 16.464 0.167998C18.0693 0.0933316 19.4133 0.0559983 20.496 0.0559983C21.9147 0.0186649 24.416 -1.72853e-06 28 -1.72853e-06Z" fill="black"/>
</svg>
