<svg width="57" height="56" viewBox="0 0 57 56" fill="none" xmlns="http://www.w3.org/2000/svg">
<path d="M53.6399 6.72094H15.9332C15.0621 6.72094 14.3155 7.03205 13.6932 7.65427C13.071 8.27649 12.7599 9.08538 12.7599 10.0809V15.3076L2.6799 5.2276C2.55545 5.10316 2.33768 5.04094 2.02657 5.04094C1.71545 5.04094 1.43545 5.13427 1.18657 5.32094C0.937677 5.5076 0.813232 5.75649 0.813232 6.0676C0.813232 6.37872 0.937677 6.65872 1.18657 6.9076L14.0666 19.7876L7.34657 26.5076L2.6799 22.0276C2.55545 21.7787 2.33768 21.6543 2.02657 21.6543C1.71545 21.6543 1.43545 21.7787 1.18657 22.0276C0.937677 22.2765 0.813232 22.5565 0.813232 22.8676C0.813232 23.1787 0.937677 23.3965 1.18657 23.5209L10.3332 32.6676V33.6009C10.3332 36.2143 11.1421 38.5787 12.7599 40.6943V47.7876C12.7599 48.6587 13.071 49.4054 13.6932 50.0276C14.3155 50.6498 15.0621 50.9609 15.9332 50.9609H53.6399C54.511 50.9609 55.2577 50.6498 55.8799 50.0276C56.5021 49.4054 56.8132 48.6587 56.8132 47.7876V22.7743C56.8132 22.4009 56.7199 22.1209 56.5332 21.9343C56.3466 21.7476 56.0977 21.6543 55.7866 21.6543C55.4755 21.6543 55.2266 21.7476 55.0399 21.9343C54.8532 22.1209 54.7599 22.4009 54.7599 22.7743V47.7876C54.7599 48.0365 54.6355 48.2854 54.3866 48.5343C54.1377 48.7832 53.8888 48.9076 53.6399 48.9076H30.8666V48.7209C31.1155 48.472 31.3643 48.1609 31.6132 47.7876C31.9866 48.0365 32.4221 48.1609 32.9199 48.1609C33.791 48.1609 34.5377 47.8498 35.1599 47.2276C35.7821 46.6054 36.0932 45.8587 36.0932 44.9876C36.0932 44.4898 35.9688 43.992 35.7199 43.4943C36.0932 43.3698 36.4043 43.1832 36.6532 42.9343C37.2755 42.312 37.5866 41.5654 37.5866 40.6943C37.5866 39.8232 37.2755 39.0765 36.6532 38.4543L32.9199 34.5343C34.2888 34.6587 35.3466 34.2232 36.0932 33.2276C36.591 32.3565 36.7777 31.4543 36.6532 30.5209C36.5288 29.5876 36.0932 28.8098 35.3466 28.1876L31.4266 25.2009C29.0621 23.4587 26.3866 22.5876 23.3999 22.5876H20.0399L14.8132 17.5476V10.0809C14.8132 9.7076 14.9377 9.4276 15.1866 9.24094C15.4355 9.05427 15.6843 8.96094 15.9332 8.96094H27.3199V20.1609C27.3199 20.6587 27.5688 21.0009 28.0666 21.1876C28.5643 21.3743 28.9377 21.2809 29.1866 20.9076L31.6132 18.4809L34.0399 20.9076C34.2888 21.1565 34.5377 21.2809 34.7866 21.2809C35.0355 21.2809 35.2843 21.1565 35.5332 20.9076L37.9599 18.4809L40.3866 20.9076C40.511 21.1565 40.7599 21.2809 41.1332 21.2809L41.5066 21.0943C42.0043 20.9698 42.2532 20.6587 42.2532 20.1609V8.96094H53.6399C53.8888 8.96094 54.1377 9.05427 54.3866 9.24094C54.6355 9.4276 54.7599 9.7076 54.7599 10.0809V14.0009C54.7599 14.2498 54.8532 14.4987 55.0399 14.7476C55.2266 14.9965 55.4755 15.1209 55.7866 15.1209C56.0977 15.1209 56.3466 14.9965 56.5332 14.7476C56.7199 14.4987 56.8132 14.2498 56.8132 14.0009V10.0809C56.8132 9.08538 56.5021 8.27649 55.8799 7.65427C55.2577 7.03205 54.511 6.72094 53.6399 6.72094ZM14.8132 47.7876V42.9343L20.7866 48.9076H15.9332C15.6843 48.9076 15.4355 48.7832 15.1866 48.5343C14.9377 48.2854 14.8132 48.0365 14.8132 47.7876ZM23.3999 24.8276C25.8888 24.8276 28.1288 25.5743 30.1199 27.0676L34.0399 29.8676C34.2888 30.1165 34.4443 30.4276 34.5066 30.8009C34.5688 31.1743 34.4755 31.5476 34.2266 31.9209C34.1021 32.1698 33.8532 32.3254 33.4799 32.3876C33.1066 32.4498 32.7955 32.4187 32.5466 32.2943L28.2532 29.4943C28.0043 29.3698 27.7243 29.3076 27.4132 29.3076C27.1021 29.3076 26.8532 29.4632 26.6666 29.7743C26.4799 30.0854 26.3866 30.3965 26.3866 30.7076C26.3866 31.0187 26.511 31.2987 26.7599 31.5476L35.1599 39.9476C35.4088 40.072 35.5332 40.2898 35.5332 40.6009C35.5332 40.912 35.4399 41.1609 35.2532 41.3476C35.0666 41.5343 34.8488 41.6276 34.5999 41.6276C34.351 41.6276 34.1021 41.5654 33.8532 41.4409L29.1866 36.5876C28.9377 36.3387 28.6577 36.2143 28.3466 36.2143C28.0355 36.2143 27.7866 36.3387 27.5999 36.5876C27.4132 36.8365 27.3199 37.1165 27.3199 37.4276C27.3199 37.7387 27.3821 37.9565 27.5066 38.0809L33.6666 44.2409C33.791 44.3654 33.8532 44.5832 33.8532 44.8943C33.8532 45.2054 33.7599 45.4543 33.5732 45.6409C33.3866 45.8276 33.1688 45.9209 32.9199 45.9209C32.671 45.9209 32.4843 45.7965 32.3599 45.5476L26.1999 39.5743C25.951 39.3254 25.7021 39.2009 25.4532 39.2009C25.2043 39.2009 24.9555 39.3254 24.7066 39.5743C24.4577 39.8232 24.3332 40.072 24.3332 40.3209C24.3332 40.5698 24.4577 40.8187 24.7066 41.0676L29.3732 45.9209C29.6221 46.0454 29.7155 46.232 29.6532 46.4809C29.591 46.7298 29.4666 46.9476 29.2799 47.1343C29.0932 47.3209 28.8755 47.4143 28.6266 47.4143C28.3777 47.4143 28.191 47.352 28.0666 47.2276L23.3999 42.3743C23.151 42.2498 22.871 42.1876 22.5599 42.1876C22.2488 42.1876 21.9999 42.2809 21.8132 42.4676C21.6266 42.6543 21.5332 42.9032 21.5332 43.2143C21.5332 43.5254 21.5955 43.8054 21.7199 44.0543L25.0799 47.2276C25.2043 47.4765 25.2666 47.6943 25.2666 47.8809C25.2666 48.0676 25.1732 48.2854 24.9866 48.5343C24.7999 48.7832 24.551 48.9076 24.2399 48.9076C23.9288 48.9076 23.711 48.7832 23.5866 48.5343L15.1866 40.1343C13.4443 38.392 12.5732 36.2765 12.5732 33.7876V32.1076L19.8532 24.8276H23.3999ZM11.0799 30.4276L8.8399 28.1876L15.5599 21.2809L17.9866 23.5209L11.0799 30.4276ZM40.0132 17.5476L38.7066 16.2409C38.4577 15.992 38.2088 15.8676 37.9599 15.8676C37.711 15.8676 37.4621 15.992 37.2132 16.2409L34.7866 18.4809L32.3599 16.2409C32.2355 15.992 32.0177 15.8676 31.7066 15.8676C31.3955 15.8676 31.1155 15.992 30.8666 16.2409L29.5599 17.5476V8.96094H40.0132V17.5476ZM49.9066 37.7076H42.8132C42.5643 37.7076 42.3466 37.832 42.1599 38.0809C41.9732 38.3298 41.8799 38.6098 41.8799 38.9209C41.8799 39.232 41.9732 39.4809 42.1599 39.6676C42.3466 39.8543 42.5643 39.9476 42.8132 39.9476H49.9066C50.1555 39.9476 50.4043 39.8543 50.6532 39.6676C50.9021 39.4809 51.0266 39.232 51.0266 38.9209C51.0266 38.6098 50.9021 38.3298 50.6532 38.0809C50.4043 37.832 50.1555 37.7076 49.9066 37.7076ZM49.9066 42.3743H45.2399C44.8666 42.3743 44.5866 42.4676 44.3999 42.6543C44.2132 42.8409 44.1199 43.0898 44.1199 43.4009C44.1199 43.712 44.2132 43.9609 44.3999 44.1476C44.5866 44.3343 44.8666 44.4276 45.2399 44.4276H49.9066C50.1555 44.4276 50.4043 44.3343 50.6532 44.1476C50.9021 43.9609 51.0266 43.712 51.0266 43.4009C51.0266 43.0898 50.9021 42.8409 50.6532 42.6543C50.4043 42.4676 50.1555 42.3743 49.9066 42.3743ZM40.7599 42.3743C40.511 42.3743 40.2621 42.4676 40.0132 42.6543C39.7643 42.8409 39.6399 43.0898 39.6399 43.4009C39.6399 43.712 39.7643 43.9609 40.0132 44.1476C40.2621 44.3343 40.5421 44.4276 40.8532 44.4276C41.1643 44.4276 41.4132 44.3343 41.5999 44.1476C41.7866 43.9609 41.8799 43.712 41.8799 43.4009C41.8799 43.0898 41.7866 42.8409 41.5999 42.6543C41.4132 42.4676 41.1332 42.3743 40.7599 42.3743ZM55.8799 17.1743C55.5066 17.1743 55.2266 17.2987 55.0399 17.5476C54.8532 17.7965 54.7599 18.0765 54.7599 18.3876C54.7599 18.6987 54.8532 18.9476 55.0399 19.1343C55.2266 19.3209 55.4755 19.4143 55.7866 19.4143C56.0977 19.4143 56.3466 19.3209 56.5332 19.1343C56.7199 18.9476 56.8132 18.6987 56.8132 18.3876C56.8132 18.0765 56.7199 17.7965 56.5332 17.5476C56.3466 17.2987 56.1288 17.1743 55.8799 17.1743Z" fill="white"/>
</svg>
