<svg width="15" height="15" viewBox="0 0 15 15" fill="none" xmlns="http://www.w3.org/2000/svg">
<path d="M3.76709 14.6748H0.86084V5.33105H3.76709V14.6748ZM2.29834 4.08105C1.39209 4.08105 0.64209 3.2998 0.64209 2.3623C0.64209 1.45605 1.39209 0.706055 2.29834 0.706055C3.23584 0.706055 3.98584 1.45605 3.98584 2.3623C3.98584 3.2998 3.23584 4.08105 2.29834 4.08105ZM14.6108 14.6748H11.7358V10.1436C11.7358 9.0498 11.7046 7.6748 10.2046 7.6748C8.70459 7.6748 8.48584 8.83105 8.48584 10.0498V14.6748H5.57959V5.33105H8.36084V6.6123H8.39209C8.79834 5.89355 9.73584 5.1123 11.1421 5.1123C14.0796 5.1123 14.6421 7.0498 14.6421 9.5498V14.6748H14.6108Z" fill="#272C49"/>
</svg>
