<svg width="42" height="56" viewBox="0 0 42 56" fill="none" xmlns="http://www.w3.org/2000/svg">
<path d="M18.8906 53.6953C3.49219 31.5469 0.75 29.2266 0.75 21C0.75 9.82031 9.71484 0.75 21 0.75C32.1797 0.75 41.25 9.82031 41.25 21C41.25 29.2266 38.4023 31.5469 23.0039 53.6953C22.0547 55.1719 19.8398 55.1719 18.8906 53.6953ZM21 29.4375C25.6406 29.4375 29.4375 25.7461 29.4375 21C29.4375 16.3594 25.6406 12.5625 21 12.5625C16.2539 12.5625 12.5625 16.3594 12.5625 21C12.5625 25.7461 16.2539 29.4375 21 29.4375Z" fill="white"/>
</svg>
