<svg width="56" height="56" viewBox="0 0 56 56" fill="none" xmlns="http://www.w3.org/2000/svg">
<path d="M44.3332 19.656V16.3333C44.3332 12.0015 42.6123 7.84702 39.5492 4.78392C36.4862 1.72083 32.3317 0 27.9998 0C23.668 0 19.5135 1.72083 16.4504 4.78392C13.3873 7.84702 11.6665 12.0015 11.6665 16.3333V19.656C9.58835 20.563 7.81952 22.0559 6.57634 23.9522C5.33315 25.8484 4.66949 28.0659 4.6665 30.3333V44.3333C4.67021 47.4264 5.90056 50.3917 8.08768 52.5788C10.2748 54.7659 13.2401 55.9963 16.3332 56H39.6665C42.7596 55.9963 45.7249 54.7659 47.912 52.5788C50.0991 50.3917 51.3295 47.4264 51.3332 44.3333V30.3333C51.3302 28.0659 50.6665 25.8484 49.4233 23.9522C48.1802 22.0559 46.4113 20.563 44.3332 19.656V19.656ZM16.3332 16.3333C16.3332 13.2391 17.5623 10.2717 19.7503 8.08375C21.9382 5.89583 24.9056 4.66667 27.9998 4.66667C31.094 4.66667 34.0615 5.89583 36.2494 8.08375C38.4373 10.2717 39.6665 13.2391 39.6665 16.3333V18.6667H16.3332V16.3333ZM46.6665 44.3333C46.6665 46.1898 45.929 47.9703 44.6163 49.2831C43.3035 50.5958 41.523 51.3333 39.6665 51.3333H16.3332C14.4767 51.3333 12.6962 50.5958 11.3834 49.2831C10.0707 47.9703 9.33317 46.1898 9.33317 44.3333V30.3333C9.33317 28.4768 10.0707 26.6963 11.3834 25.3836C12.6962 24.0708 14.4767 23.3333 16.3332 23.3333H39.6665C41.523 23.3333 43.3035 24.0708 44.6163 25.3836C45.929 26.6963 46.6665 28.4768 46.6665 30.3333V44.3333Z" fill="white"/>
<path d="M27.9999 32.666C27.381 32.666 26.7875 32.9118 26.3499 33.3494C25.9123 33.787 25.6665 34.3805 25.6665 34.9993V39.666C25.6665 40.2848 25.9123 40.8783 26.3499 41.3159C26.7875 41.7535 27.381 41.9993 27.9999 41.9993C28.6187 41.9993 29.2122 41.7535 29.6498 41.3159C30.0874 40.8783 30.3332 40.2848 30.3332 39.666V34.9993C30.3332 34.3805 30.0874 33.787 29.6498 33.3494C29.2122 32.9118 28.6187 32.666 27.9999 32.666Z" fill="white"/>
</svg>
