<svg width="50" height="38" viewBox="0 0 50 38" fill="none" xmlns="http://www.w3.org/2000/svg">
<path d="M45.3125 0.5C47.8516 0.5 50 2.64844 50 5.1875V33.3125C50 35.9492 47.8516 38 45.3125 38H4.6875C2.05078 38 0 35.9492 0 33.3125V5.1875C0 2.64844 2.05078 0.5 4.6875 0.5H45.3125ZM45.3125 5.1875H4.6875V9.19141C6.83594 11.0469 10.3516 13.7812 17.7734 19.6406C19.4336 20.9102 22.6562 24.0352 25 23.9375C27.2461 24.0352 30.4688 20.9102 32.1289 19.6406C39.5508 13.7812 43.0664 11.0469 45.3125 9.19141V5.1875ZM4.6875 33.3125H45.3125V15.2461C43.0664 17.0039 39.8438 19.543 35.0586 23.3516C32.8125 25.0117 29.1016 28.7227 25 28.625C20.8008 28.7227 16.9922 25.0117 14.8438 23.3516C10.0586 19.543 6.83594 17.0039 4.6875 15.2461V33.3125Z" fill="white"/>
</svg>
