<svg width="34" height="55" viewBox="0 0 34 55" fill="none" xmlns="http://www.w3.org/2000/svg">
<path d="M28.8125 0.75C31.5547 0.75 33.875 3.07031 33.875 5.8125V49.6875C33.875 52.5352 31.5547 54.75 28.8125 54.75H5.1875C2.33984 54.75 0.125 52.5352 0.125 49.6875V5.8125C0.125 3.07031 2.33984 0.75 5.1875 0.75H28.8125ZM17 51.375C18.793 51.375 20.375 49.8984 20.375 48C20.375 46.207 18.793 44.625 17 44.625C15.1016 44.625 13.625 46.207 13.625 48C13.625 49.8984 15.1016 51.375 17 51.375ZM28.8125 39.9844V7.07812C28.8125 6.44531 28.1797 5.8125 27.5469 5.8125H6.45312C5.71484 5.8125 5.1875 6.44531 5.1875 7.07812V39.9844C5.1875 40.7227 5.71484 41.25 6.45312 41.25H27.5469C28.1797 41.25 28.8125 40.7227 28.8125 39.9844Z" fill="white"/>
</svg>
