<svg width="56" height="56" viewBox="0 0 56 56" fill="none" xmlns="http://www.w3.org/2000/svg">
<path d="M55.5105 39.0772C55.2085 37.6817 54.5268 36.3559 53.5134 35.1928C52.5 34.0297 51.1794 33.0575 49.6444 32.3445C48.3823 31.8234 47.027 31.4607 45.6261 31.2691C43.5724 30.9951 41.4873 30.901 39.408 30.9886C38.9387 30.9886 37.5015 31.386 36.475 31.4795L35.0964 26.804C34.6039 25.1262 33.9368 23.4841 33.1019 21.8947C32.2429 20.2771 31.1292 18.7531 29.7876 17.3595C28.9687 16.4632 27.9791 15.6744 26.8545 15.0217C25.9596 14.4609 24.8794 14.1198 23.7455 14.0399C22.6987 13.931 21.6362 14.1012 20.7236 14.5241C19.811 14.947 19.0997 15.5987 18.7006 16.3776C17.9994 18.2403 17.7995 20.2 18.114 22.1285C18.2775 24.0876 18.5712 26.0385 18.9939 27.9729C19.4067 29.9167 19.9749 31.8376 20.6951 33.7237C20.9591 34.3549 21.1937 35.0095 21.4284 35.6407C20.1588 36.0489 19.0116 36.6659 18.0615 37.4514C17.1113 38.2369 16.3797 39.1732 15.9142 40.1993C15.3539 41.3289 15.0942 42.5389 15.1516 43.7527C15.2157 45.0133 15.669 46.2419 16.4715 47.3294C17.0702 48.0796 17.8239 48.7435 18.7006 49.2931C19.9208 49.991 21.24 50.5716 22.6309 51.0231L25.0067 51.5608C25.4521 51.8076 25.8477 52.1072 26.1799 52.4491C27.1185 53.4777 27.7344 54.7869 28.761 55.6752C28.8392 55.7604 28.9379 55.8323 29.0514 55.8868C29.1649 55.9412 29.2908 55.9771 29.4219 55.9923C29.5529 56.0076 29.6865 56.0019 29.8148 55.9755C29.943 55.9491 30.0634 55.9027 30.1689 55.8388C30.2792 55.7787 30.3726 55.7009 30.4433 55.6105C30.5141 55.5201 30.5605 55.419 30.5798 55.3136C30.5991 55.2082 30.5908 55.1007 30.5554 54.998C30.52 54.8953 30.4583 54.7995 30.3742 54.7167C29.4943 53.6881 29.0543 52.379 28.2624 51.3504C27.8437 50.7774 27.3084 50.2639 26.6785 49.8308C26.3483 49.6264 25.9828 49.461 25.5933 49.3399C25.0653 49.1529 24.4494 49.0594 23.9215 48.8256C22.8167 48.3767 21.7746 47.836 20.8124 47.2126C20.2508 46.8474 19.7657 46.4134 19.3752 45.9268C18.8174 45.1729 18.4593 44.3359 18.3231 43.4674C18.1869 42.5989 18.2754 41.7174 18.5833 40.8772C18.8475 40.111 19.2998 39.3941 19.914 38.7681C20.5283 38.1421 21.2922 37.6194 22.1616 37.2304C22.4256 37.8849 22.6896 38.5629 22.9829 39.1941C23.5331 40.3913 24.1696 41.5621 24.8894 42.7007C24.9965 42.8696 25.1823 42.9984 25.407 43.0596C25.6317 43.1207 25.8775 43.1094 26.0919 43.028C26.1971 42.986 26.2906 42.9276 26.367 42.8563C26.4433 42.785 26.501 42.7023 26.5365 42.6129C26.5721 42.5236 26.5848 42.4294 26.5739 42.3361C26.563 42.2428 26.5288 42.1521 26.4732 42.0695C25.8399 40.9752 25.2914 39.851 24.8307 38.7031C24.1268 36.9498 23.5695 35.1731 22.9829 33.3497C22.3862 31.5196 21.9356 29.6613 21.6337 27.7858C21.3379 25.908 21.152 24.0201 21.0764 22.1285C20.8342 20.5546 21.0345 18.9575 21.663 17.453C21.8333 17.1523 22.1254 16.9059 22.4924 16.7533C22.8593 16.6007 23.28 16.5508 23.6868 16.6114C24.3677 16.6715 25.0006 16.9196 25.476 17.3127C26.1401 17.776 26.7311 18.302 27.2358 18.879C28.4273 20.1127 29.4132 21.4643 30.1689 22.8999C30.9333 24.3627 31.5511 25.8713 32.0167 27.4118L33.4246 32.7419C33.5025 33.063 33.7065 33.356 34.007 33.5787C34.3074 33.8014 34.689 33.9422 35.0964 33.9809C36.5619 33.9669 38.0235 33.8574 39.4667 33.6536C41.3195 33.5036 43.1866 33.5036 45.0395 33.6536C46.1896 33.7653 47.3091 34.0259 48.3538 34.4251C49.5486 34.9626 50.5821 35.7011 51.3824 36.5893C52.1828 37.4775 52.7307 38.494 52.9881 39.5681C53.8227 43.1218 53.8227 46.7681 52.9881 50.3218L52.0495 53.9453C52.0187 54.0481 52.0136 54.1548 52.0345 54.2592C52.0554 54.3636 52.1019 54.4637 52.1714 54.5538C52.3116 54.7358 52.5368 54.8658 52.7974 54.9154C53.058 54.965 53.3327 54.9301 53.5609 54.8183C53.674 54.7629 53.7722 54.6904 53.8501 54.6048C53.9279 54.5192 53.9838 54.4222 54.0146 54.3193L55.0999 50.6023C56.1412 46.815 56.2805 42.9055 55.5105 39.0772Z" fill="white"/>
<path d="M31.9846 16.0735C32.1098 16.1062 32.2419 16.1189 32.3732 16.1107C32.5045 16.1025 32.6325 16.0737 32.7497 16.0259C32.867 15.9781 32.9712 15.9122 33.0564 15.8321C33.1415 15.752 33.2059 15.6592 33.2459 15.5592C33.681 14.5398 33.8303 13.4568 33.6833 12.3864C33.5364 11.3161 33.0967 10.2844 32.3953 9.36415C31.6981 8.38244 30.7417 7.53322 29.592 6.87527C28.4424 6.21732 27.1271 5.76636 25.7372 5.55362C23.736 5.29723 21.6963 5.29723 19.6951 5.55362C17.6265 5.82238 15.6379 6.39299 13.829 7.2368C13.075 7.64485 12.377 8.11499 11.7465 8.63945C10.8866 9.36092 10.111 10.1434 9.42941 10.9772C8.17815 12.4169 7.62571 14.1698 7.87489 15.9099C8.17773 17.5469 9.06333 19.0803 10.4267 20.3282C11.0208 20.8987 11.7005 21.4091 12.4505 21.8477C12.9816 22.1803 13.5895 22.4265 14.2396 22.5724C14.4652 22.6282 14.7094 22.6103 14.9184 22.5226C15.1274 22.435 15.2842 22.2847 15.3542 22.1049C15.4242 21.9251 15.4017 21.7305 15.2917 21.5639C15.1817 21.3973 14.9932 21.2723 14.7676 21.2165C14.2453 21.0372 13.7683 20.7838 13.3597 20.4685C12.9099 20.1041 12.507 19.7047 12.1572 19.2762C11.1508 18.2548 10.5484 17.0179 10.4267 15.7228C10.4157 14.5129 10.9579 13.3412 11.9518 12.4266C12.4891 11.8412 13.0771 11.2866 13.7117 10.7668C14.2583 10.2699 14.8902 9.837 15.5888 9.48104C17.0192 8.83422 18.5759 8.38376 20.1937 8.14852C21.8492 7.85877 23.5504 7.77206 25.2386 7.89137C26.2229 7.97479 27.1728 8.2269 28.0234 8.63042C28.8739 9.03393 29.6049 9.5793 30.1661 10.2291C30.7674 10.8969 31.1763 11.6621 31.3639 12.4703C31.5515 13.2784 31.5131 14.1096 31.2514 14.9046C31.1866 15.0187 31.1545 15.1428 31.1575 15.268C31.1605 15.3932 31.1985 15.5162 31.2688 15.6282C31.339 15.7402 31.4398 15.8383 31.5636 15.9153C31.6874 15.9924 31.8313 16.0464 31.9846 16.0735Z" fill="white"/>
<path d="M14.4464 27.6907C12.4085 27.3905 10.4338 26.8632 8.58029 26.1244C6.87113 25.399 5.47212 24.2839 4.562 22.9216C3.98607 22.0744 3.55219 21.1705 3.27145 20.2332C2.95713 19.2874 2.79936 18.3129 2.80216 17.3344C2.82646 15.1252 3.42571 12.9441 4.562 10.929C5.59096 8.93543 7.21138 7.17061 9.28423 5.78594C11.329 4.47028 13.7284 3.55009 16.2942 3.09752C18.9784 2.67324 21.7281 2.57863 24.4481 2.81699C26.0027 2.81699 27.6159 2.98064 29.141 3.19103C30.0971 3.31584 31.032 3.52762 31.9275 3.82223C33.5958 4.46435 35.0599 5.39949 36.2097 6.55739C37.4747 7.73338 38.4678 9.07897 39.1428 10.5316C39.5688 11.482 39.8926 12.4596 40.1107 13.4538C40.2933 14.4206 40.3522 15.3996 40.2867 16.3759C40.2142 17.4443 39.9168 18.4954 39.4068 19.4852C38.6009 21.0562 37.6192 22.5662 36.4737 23.997C36.3772 24.087 36.3064 24.1927 36.2661 24.3067C36.2258 24.4207 36.2171 24.5403 36.2404 24.6572C36.2638 24.7741 36.3188 24.8856 36.4015 24.984C36.4842 25.0824 36.5927 25.1652 36.7195 25.2269C36.8463 25.2886 36.9885 25.3276 37.136 25.3412C37.2836 25.3549 37.4332 25.3428 37.5743 25.3059C37.7155 25.269 37.8449 25.2081 37.9537 25.1274C38.0624 25.0467 38.1479 24.9482 38.2042 24.8386C39.4531 23.3561 40.5422 21.7921 41.4599 20.1631C42.1035 19.0134 42.519 17.791 42.6918 16.5396C42.8514 15.4133 42.8514 14.2762 42.6918 13.1498C42.5057 12.0327 42.2015 10.93 41.7825 9.85362C41.0923 8.16387 40.0404 6.58204 38.6735 5.17812C37.2612 3.63344 35.3855 2.39566 33.218 1.57799C32.1118 1.1697 30.9506 0.863795 29.757 0.666263C28.0977 0.42447 26.4235 0.252795 24.7415 0.151958C21.68 -0.125257 18.5831 -0.0227381 15.561 0.455866C12.4678 0.99076 9.57482 2.09563 7.11376 3.68196C4.6493 5.38532 2.76297 7.5561 1.62894 9.99389C0.446884 12.3552 -0.102603 14.8874 0.0157572 17.4279C0.100496 18.5531 0.346518 19.6669 0.749022 20.7475C1.14606 21.8379 1.71783 22.8829 2.4502 23.8567C3.44564 25.1531 4.81273 26.2427 6.43916 27.0361C8.8171 28.0938 11.4244 28.7838 14.1238 29.0699C14.2374 29.0868 14.3541 29.0857 14.4672 29.0667C14.5803 29.0476 14.6876 29.011 14.7829 28.9589C14.8782 28.9068 14.9598 28.8403 15.0228 28.763C15.0859 28.6858 15.1292 28.5994 15.1503 28.5089C15.1716 28.4183 15.1702 28.3253 15.1463 28.2351C15.1224 28.145 15.0764 28.0595 15.0111 27.9835C14.9457 27.9075 14.8622 27.8426 14.7653 27.7923C14.6684 27.7421 14.5601 27.7075 14.4464 27.6907Z" fill="white"/>
</svg>
