<svg width="38" height="51" viewBox="0 0 38 51" fill="none" xmlns="http://www.w3.org/2000/svg">
<path d="M36.2852 9.82031C37.1641 10.6992 37.75 11.9688 37.75 13.1406V45.5625C37.75 48.1992 35.6016 50.25 33.0625 50.25H4.9375C2.30078 50.25 0.25 48.1992 0.25 45.5625V4.9375C0.25 2.39844 2.30078 0.25 4.9375 0.25H24.8594C26.0312 0.25 27.3008 0.738281 28.1797 1.61719L36.2852 9.82031ZM32.6719 12.75L25.25 5.32812V12.75H32.6719ZM4.9375 45.5625H33.0625V17.4375H22.9062C21.5391 17.4375 20.5625 16.4609 20.5625 15.0938V4.9375H4.9375V45.5625ZM29.3516 31.5977C30.3281 32.5742 30.1328 35.3086 27.5938 35.3086C26.1289 35.3086 23.9805 34.7227 22.125 33.6484C20.0742 34.0391 17.6328 34.918 15.4844 35.6992C10.6016 44.0977 7.76953 40.2891 8.0625 38.7266C8.45312 36.7734 11.0898 35.2109 13.043 34.2344C14.0195 32.3789 15.4844 29.2539 16.4609 26.9102C15.7773 24.1758 15.3867 21.9297 15.7773 20.3672C16.2656 18.6094 19.5859 18.4141 19.9766 20.9531C20.4648 22.418 19.7812 24.8594 19.4883 26.4219C20.2695 28.4727 21.3438 29.9375 23.0039 30.9141C24.7617 30.7188 28.1797 30.4258 29.3516 31.5977ZM10.0156 39.2148C10.0156 39.2148 11.0898 38.7266 12.9453 35.7969C12.3594 36.2852 10.5039 37.8477 10.0156 39.2148ZM17.9258 20.5625C17.7305 20.5625 17.7305 23.1992 18.1211 24.5664C18.6094 23.6875 18.707 20.5625 17.9258 20.5625ZM15.582 33.9414C17.1445 33.2578 18.9023 32.4766 20.9531 31.9883C19.7812 31.207 18.8047 30.0352 18.0234 28.5703C17.3398 30.3281 16.5586 32.2812 15.582 33.9414ZM28.375 33.4531C28.7656 33.1602 28.1797 32.3789 24.7617 32.6719C27.8867 34.0391 28.375 33.4531 28.375 33.4531Z" fill="white"/>
</svg>
