<svg width="48" height="55" viewBox="0 0 48 55" fill="none" xmlns="http://www.w3.org/2000/svg">
<path d="M24 27.75C16.5117 27.75 10.5 21.7383 10.5 14.25C10.5 6.86719 16.5117 0.75 24 0.75C31.3828 0.75 37.5 6.86719 37.5 14.25C37.5 21.7383 31.3828 27.75 24 27.75ZM33.3867 31.125C41.1914 31.125 47.625 37.5586 47.625 45.3633V49.6875C47.625 52.5352 45.3047 54.75 42.5625 54.75H5.4375C2.58984 54.75 0.375 52.5352 0.375 49.6875V45.3633C0.375 37.5586 6.70312 31.125 14.5078 31.125H16.3008C18.6211 32.2852 21.2578 32.8125 24 32.8125C26.7422 32.8125 29.2734 32.2852 31.5938 31.125H33.3867Z" fill="white"/>
</svg>
