<svg width="47" height="55" viewBox="0 0 47 55" fill="none" xmlns="http://www.w3.org/2000/svg">
<path d="M14.2305 54.2227C0.519531 40.6172 0.519531 18.3633 14.2305 4.75781C14.8633 4.125 15.707 4.01953 16.4453 4.44141L23.3008 8.76562C23.8281 9.08203 24.1445 9.60938 24.1445 10.2422C24.1445 10.4531 24.1445 10.7695 24.0391 10.9805L20.5586 19.5234C20.3477 20.1562 19.7148 20.5781 18.8711 20.5781H18.7656L12.8594 20.0508C10.6445 26.168 10.6445 32.918 12.8594 38.9297L18.7656 38.4023H18.8711C19.7148 38.4023 20.3477 38.8242 20.5586 39.457L24.0391 48C24.1445 48.2109 24.1445 48.5273 24.1445 48.7383C24.1445 49.3711 23.8281 49.8984 23.3008 50.2148L16.4453 54.5391C16.1289 54.75 15.8125 54.75 15.4961 54.75C14.9688 54.75 14.5469 54.6445 14.2305 54.2227ZM30.0508 10.875C31.2109 12.9844 31.2109 15.6211 30.0508 17.7305C29.6289 18.4688 28.6797 18.5742 28.0469 18.0469L27.4141 17.4141C26.9922 16.9922 26.8867 16.3594 27.2031 15.832C27.4141 15.4102 27.5195 14.8828 27.5195 14.3555C27.5195 13.7227 27.4141 13.1953 27.2031 12.7734C26.8867 12.2461 26.9922 11.6133 27.4141 11.1914L28.0469 10.5586C28.6797 10.0312 29.6289 10.1367 30.0508 10.875ZM39.6484 1.27734C46.082 8.76562 46.082 19.8398 39.6484 27.3281C39.2266 27.9609 38.3828 27.9609 37.8555 27.4336L37.2227 26.9062C36.8008 26.3789 36.6953 25.6406 37.1172 25.1133C42.3906 18.8906 42.3906 9.71484 37.1172 3.49219C36.6953 2.96484 36.8008 2.22656 37.2227 1.69922L37.8555 1.17188C38.3828 0.644531 39.2266 0.644531 39.6484 1.27734ZM34.7969 6.02344C38.5938 10.875 38.6992 17.7305 34.7969 22.582C34.375 23.2148 33.5312 23.3203 33.0039 22.793L32.3711 22.1602C31.8438 21.7383 31.8438 21 32.1602 20.4727C35.0078 16.8867 35.0078 11.7188 32.1602 8.13281C31.8438 7.60547 31.8438 6.86719 32.3711 6.44531L33.0039 5.8125C33.5312 5.28516 34.375 5.39062 34.7969 6.02344Z" fill="white"/>
</svg>
