<svg width="56" height="56" viewBox="0 0 56 56" fill="none" xmlns="http://www.w3.org/2000/svg">
<path d="M55.1055 51.3038L47.2784 43.2531C50.2602 39.675 52.1237 35.6497 52.8692 31.1771C53.6146 26.7045 53.2419 22.3064 51.751 17.9829C50.2602 13.6594 47.8002 9.93225 44.3712 6.80143C40.9423 3.67061 36.9915 1.62067 32.5189 0.651609C28.0463 -0.317454 23.6109 -0.205639 19.2129 0.987054C14.8148 2.17975 10.9759 4.41605 7.69595 7.69595C4.41605 10.9759 2.17975 14.8148 0.987056 19.2129C-0.205637 23.6109 -0.317452 28.0463 0.651611 32.5189C1.62067 36.9915 3.67061 40.9423 6.80143 44.3712C9.93225 47.8002 13.6594 50.2602 17.9829 51.751C22.3064 53.2419 26.7045 53.6146 31.1771 52.8692C35.6497 52.1237 39.675 50.2602 43.2531 47.2784L51.3038 55.1055C51.751 55.7018 52.3847 56 53.2046 56C54.0246 56 54.6955 55.7391 55.2173 55.2173C55.7391 54.6955 56 54.0246 56 53.2046C56 52.3847 55.7018 51.751 55.1055 51.3038ZM5.68328 26.7045C5.68328 22.8282 6.61507 19.2874 8.47866 16.0821C10.3422 12.8767 12.8767 10.3422 16.0821 8.47865C19.2874 6.61507 22.791 5.68328 26.5927 5.68328C30.3944 5.68328 33.8979 6.61507 37.1033 8.47865C40.3086 10.3422 42.8804 12.8767 44.8185 16.0821C46.7566 19.2874 47.7257 22.791 47.7257 26.5927C47.7257 30.3944 46.7566 33.8979 44.8185 37.1033C42.8804 40.3086 40.3086 42.8431 37.1033 44.7067C33.8979 46.5703 30.3944 47.5021 26.5927 47.5021C22.791 47.5021 19.2874 46.5703 16.0821 44.7067C12.8767 42.8431 10.3422 40.3086 8.47866 37.1033C6.61507 33.8979 5.68328 30.4317 5.68328 26.7045Z" fill="white"/>
</svg>
