<svg width="56" height="56" viewBox="0 0 56 56" fill="none" xmlns="http://www.w3.org/2000/svg">
<path d="M50.0753 23.1467V19.7867C50.0753 16.1778 49.0878 12.8489 47.1129 9.8C45.138 6.75111 42.5161 4.35556 39.2473 2.61333C35.9785 0.871111 32.3692 -2.38419e-07 28.4194 -2.38419e-07C24.4695 -2.38419e-07 20.8602 0.871111 17.5914 2.61333C14.3226 4.35556 11.7007 6.75111 9.72581 9.8C7.7509 12.8489 6.76344 16.1778 6.76344 19.7867V23.1467H5.94624C4.17563 23.1467 2.74552 23.7378 1.65591 24.92C0.566308 26.1022 0.0215054 27.44 0.0215054 28.9333V37.7067C-0.114695 39.2 0.396057 40.4756 1.55376 41.5333C2.71147 42.5911 4.10753 43.1822 5.74194 43.3067H11.4624C11.871 43.3067 12.2115 43.1511 12.4839 42.84C12.7563 42.5289 12.8925 42.1867 12.8925 41.8133V24.8267C12.8925 24.3289 12.7563 23.9244 12.4839 23.6133C12.2115 23.3022 11.871 23.1467 11.4624 23.1467H9.82796V19.7867C9.82796 16.6756 10.6452 13.8133 12.2796 11.2C13.914 8.58667 16.1613 6.53333 19.0215 5.04C21.8817 3.54667 25.0143 2.8 28.4194 2.8C31.8244 2.8 34.9229 3.54667 37.7151 5.04C40.5072 6.53333 42.7545 8.58667 44.457 11.2C46.1595 13.8133 47.0108 16.6756 47.0108 19.7867V23.1467H45.3763C44.9677 23.1467 44.6272 23.3022 44.3548 23.6133C44.0824 23.9244 43.9462 24.3289 43.9462 24.8267V41.8133C43.9462 42.1867 44.0484 42.4978 44.2527 42.7467C44.457 42.9956 44.7634 43.1822 45.172 43.3067H47.0108L46.8065 43.4933C45.7168 44.8622 44.3208 45.92 42.6183 46.6667C40.9158 47.4133 39.1111 47.7867 37.2043 47.7867C36.7957 45.92 35.7401 44.4578 34.0376 43.4C32.3351 42.3422 30.4624 42.0622 28.4194 42.56C26.6487 42.8089 25.2186 43.5556 24.129 44.8C23.0394 46.0444 22.4946 47.4756 22.4946 49.0933C22.4946 51.0844 23.2097 52.7333 24.6398 54.04C26.0699 55.3467 27.8405 56 29.9516 56C32.0627 56 33.8674 55.2533 35.3656 53.76C36.4552 52.8889 37.0681 51.8311 37.2043 50.5867C39.6559 50.5867 41.9373 50.0889 44.0484 49.0933C46.1595 48.0978 47.8961 46.7289 49.2581 44.9867L50.6882 43.12C52.3226 42.9956 53.6165 42.4978 54.5699 41.6267C55.5233 40.7556 56 39.6356 56 38.2667V29.68C56 28.0622 55.4552 26.5689 54.3656 25.2C53.276 23.8311 51.8459 23.1467 50.0753 23.1467ZM9.82796 40.5067H5.94624C5.12903 40.5067 4.41398 40.2267 3.80108 39.6667C3.18817 39.1067 2.88172 38.4533 2.88172 37.7067V28.9333C2.88172 28.1867 3.18817 27.5022 3.80108 26.88C4.41398 26.2578 5.12903 25.9467 5.94624 25.9467H9.82796V40.5067ZM33.3226 51.8933C32.3692 52.7644 31.2796 53.2 30.0538 53.2C28.828 53.2 27.7724 52.7956 26.8871 51.9867C26.0018 51.1778 25.5251 50.2133 25.457 49.0933C25.3889 47.9733 25.7975 47.0089 26.6828 46.2C27.5681 45.3911 28.6237 44.9867 29.8495 44.9867C31.0753 44.9867 32.1308 45.3911 33.0161 46.2C33.9014 47.0089 34.3441 47.9733 34.3441 49.0933C34.4803 50.2133 34.1398 51.1467 33.3226 51.8933ZM53.1398 38.2667C53.1398 39.1378 52.7993 39.7289 52.1183 40.04C51.4373 40.3511 50.7563 40.5067 50.0753 40.5067H47.0108V25.9467H50.0753C50.8925 25.9467 51.6075 26.3511 52.2204 27.16C52.8333 27.9689 53.1398 28.8089 53.1398 29.68V38.2667Z" fill="white"/>
</svg>
