<svg width="56" height="50" viewBox="0 0 56 50" fill="none" xmlns="http://www.w3.org/2000/svg">
<path d="M28 0.5C43.4219 0.5 56 13.0781 56 28.5V33.75C56 35.1719 55.125 36.375 54.0312 36.9219L52.3906 37.6875C52.1719 44.25 46.8125 49.5 40.25 49.5H37.625C36.0938 49.5 35 48.4062 35 46.875V27.625C35 26.2031 36.0938 25 37.625 25H40.25C43.6406 25 46.7031 26.4219 49 28.7188V28.5C49 17.0156 39.4844 7.5 28 7.5C16.4062 7.5 7 17.0156 7 28.5V28.7188C9.1875 26.4219 12.25 25 15.75 25H18.375C19.7969 25 21 26.2031 21 27.625V46.875C21 48.4062 19.7969 49.5 18.375 49.5H15.75C9.07812 49.5 3.71875 44.25 3.5 37.6875L1.85938 36.9219C0.765625 36.375 0 35.1719 0 33.75V28.5C0 13.0781 12.4688 0.5 28 0.5Z" fill="#3698D2"/>
</svg>
