<svg width="70" height="56" viewBox="0 0 70 56" fill="none" xmlns="http://www.w3.org/2000/svg">
<path d="M68.25 38.5C69.125 38.5 70 39.375 70 40.25V43.75C70 44.7344 69.125 45.5 68.25 45.5H63C63 51.2969 58.2969 56 52.5 56C46.7031 56 42 51.2969 42 45.5H28C28 51.2969 23.2969 56 17.5 56C11.7031 56 7 51.2969 7 45.5V31.5H23.625C24.0625 31.5 24.5 31.1719 24.5 30.625V28.875C24.5 28.4375 24.0625 28 23.625 28H0.875C0.328125 28 0 27.6719 0 27.125V25.375C0 24.9375 0.328125 24.5 0.875 24.5H27.125C27.5625 24.5 28 24.1719 28 23.625V21.875C28 21.4375 27.5625 21 27.125 21H4.375C3.82812 21 3.5 20.6719 3.5 20.125V18.375C3.5 17.9375 3.82812 17.5 4.375 17.5H30.625C31.0625 17.5 31.5 17.1719 31.5 16.625V14.875C31.5 14.4375 31.0625 14 30.625 14H0.875C0.328125 14 0 13.6719 0 13.125V11.375C0 10.9375 0.328125 10.5 0.875 10.5H7V5.25C7 2.40625 9.29688 0 12.25 0H40.25C43.0938 0 45.5 2.40625 45.5 5.25V10.5H50.3125C51.625 10.5 53.0469 11.1562 54.0312 12.1406L64.8594 22.9688C65.8438 23.9531 66.5 25.375 66.5 26.6875V38.5H68.25ZM17.5 50.75C20.3438 50.75 22.75 48.4531 22.75 45.5C22.75 42.6562 20.3438 40.25 17.5 40.25C14.5469 40.25 12.25 42.6562 12.25 45.5C12.25 48.4531 14.5469 50.75 17.5 50.75ZM52.5 50.75C55.3438 50.75 57.75 48.4531 57.75 45.5C57.75 42.6562 55.3438 40.25 52.5 40.25C49.5469 40.25 47.25 42.6562 47.25 45.5C47.25 48.4531 49.5469 50.75 52.5 50.75ZM61.25 28V26.6875L50.3125 15.75H45.5V28H61.25Z" fill="#3698D2"/>
</svg>
